<?xml version="1.0" encoding="UTF-8"?>
<svg id="Layer_2" data-name="Layer 2" xmlns="http://www.w3.org/2000/svg" xmlns:xlink="http://www.w3.org/1999/xlink" viewBox="0 0 50 50">
  <defs>
    <style>
      .cls-1 {
        fill: #f9ecdc;
      }

      .cls-2 {
        fill: #fff;
      }

      .cls-3 {
        fill: #faefe5;
      }

      .cls-4 {
        fill: #f0512a;
      }

      .cls-5 {
        fill: #f05840;
      }

      .cls-6 {
        stroke: #e2523b;
        stroke-width: 1px;
      }

      .cls-6, .cls-7, .cls-8, .cls-9, .cls-10, .cls-11 {
        fill: none;
      }

      .cls-6, .cls-7, .cls-8, .cls-11 {
        stroke-miterlimit: 10;
      }

      .cls-7 {
        stroke: #29306f;
      }

      .cls-7, .cls-8 {
        stroke-width: .25px;
      }

      .cls-8 {
        stroke: #f4e6d5;
      }

      .cls-12 {
        fill: #29306f;
      }

      .cls-13 {
        fill: #f1cfaa;
      }

      .cls-14 {
        fill: #c92615;
      }

      .cls-15 {
        fill: #f4e6d5;
      }

      .cls-10 {
        clip-path: url(#clippath);
      }

      .cls-16 {
        fill: #ff8b00;
      }

      .cls-11 {
        stroke: #fff;
        stroke-width: .75px;
      }

      .cls-17 {
        fill: #e2523b;
      }

      .cls-18 {
        fill: #3b439c;
      }
    </style>
    <clipPath id="clippath">
      <rect class="cls-9" width="50" height="50"/>
    </clipPath>
  </defs>
  <g id="Layer_1-2" data-name="Layer 1">
    <g class="cls-10">
      <g>
        <path class="cls-5" d="m21.15,24.86c3.89-.56,6.61-4.1,6.06-7.92-.54-3.82-4.14-6.47-8.03-5.91-3.89.56-6.61,4.1-6.06,7.92.54,3.82,4.14,6.47,8.03,5.91Z"/>
        <path class="cls-16" d="m21.78,24.79c3.89-.56,6.61-4.1,6.06-7.92-.54-3.82-4.14-6.47-8.03-5.91-3.89.56-6.61,4.1-6.06,7.92.54,3.82,4.14,6.47,8.03,5.91Z"/>
        <path class="cls-16" d="m13.73,18.64c3.03-2.5,6.05-4.99,9.08-7.49.43.13.95.32,1.5.62.32.17.59.35.83.53l-10.58,8.88s-.78-.86-.84-2.55Z"/>
        <path class="cls-17" d="m16.94,23.77c3.48-2.87,6.95-5.75,10.42-8.62.15.36.29.79.39,1.28.05.25.09.5.11.72-2.97,2.49-5.94,4.99-8.91,7.48-.23-.06-.48-.13-.74-.23-.51-.19-.94-.42-1.28-.64Z"/>
        <path class="cls-5" d="m20.85,23.27c2.95,0,5.35-2.4,5.35-5.35s-2.39-5.35-5.35-5.35-5.35,2.4-5.35,5.35,2.39,5.35,5.35,5.35Z"/>
        <path class="cls-4" d="m21.87,22.99c2.79-.4,4.73-3,4.34-5.8-.4-2.8-2.99-4.75-5.78-4.36-2.79.4-4.73,3-4.34,5.8.4,2.8,2.99,4.75,5.78,4.36Z"/>
        <path class="cls-5" d="m20.82,15.67s.47.14.73.29c.26.16.75,0,.64-.48-.11-.48-.6-.65-.9-.71-.31-.06-.45-.06-.45-.06l-.08-.02-.08-.58s-.16-.14-.46-.17c-.3-.03-.43.32-.43.32l.11.64s-1.49.43-1.27,1.79c.22,1.36,1.55,1.31,1.55,1.31,0,0,1.8-.3,1.99.79.19,1.09-.77,1.49-1.21,1.4-.45-.09-.93-.04-1.29-.7-.36-.66-.91,0-.92.12,0,.13.39,1.04,1.05,1.37,0,0,.34.15.6.16.26,0,.33-.03.33-.03l.11.69s.07.1.43.14c.36.04.5-.27.5-.27l-.09-.73s1.14-.15,1.49-1.77c.35-1.62-1.42-2.19-2.1-2.15-.68.04-1.46.25-1.45-.7,0-.14.36-.77,1.23-.68Z"/>
        <path class="cls-16" d="m21.17,15.64s.47.14.73.3c.26.16.75,0,.64-.48-.11-.48-.6-.65-.9-.71-.31-.06-.45-.06-.45-.06l-.08-.02-.08-.58s-.16-.14-.46-.17c-.3-.03-.43.32-.43.32l.11.64s-1.49.43-1.27,1.79c.22,1.36,1.55,1.31,1.55,1.31,0,0,1.8-.3,1.99.79.19,1.09-.77,1.49-1.21,1.4-.45-.09-.93-.04-1.29-.7-.36-.66-.91,0-.92.12,0,.13.39,1.04,1.05,1.37,0,0,.34.15.6.16.26,0,.33-.03.33-.03l.11.69s.07.1.43.14c.36.04.5-.27.5-.27l-.09-.73s1.14-.15,1.49-1.77c.35-1.62-1.42-2.19-2.1-2.15-.68.04-1.46.25-1.45-.7,0-.14.36-.77,1.23-.68Z"/>
        <path class="cls-13" d="m25.67,42.51l.26,1.25.07.65,1.27-.08s-.13-1.64-.26-2.02c-.13-.38-1.34.21-1.34.21Z"/>
        <path class="cls-13" d="m35.14,40.86l1.05.18v1.34s-1.78-.2-1.78-.2l.33-1.14.05-.26.36.08Z"/>
        <path class="cls-13" d="m25.88,11.49c.03.48.07.95.1,1.43.1.15.2.31.3.46.7-.04,1.41-.07,2.11-.11l-.04-.11-.72-2.01-1.75.34Z"/>
        <path class="cls-15" d="m26.1,13.02s.31.04.75.12c.44.08.88.06,1.03.03.15-.03.46-.08.46-.08l.06.18s-1.62.08-1.66.08-.43-.14-.43-.14l-.21-.19Z"/>
        <path class="cls-2" d="m25.98,12.92s-.02.06-.02.1c.01.12.14.2.17.22.01.01.17.21.49.62,0,0,.31.39.63,1.12.31.7.67,2.37.55,4.52-.03.55-.2,2.72-1.09,4.83-.16.38-.31.67-.4.86-.48.95-1.49,2.69-1.49,2.69,0,0,.23.57,2.5.33,2.26-.24,2.71-.81,2.71-.81l.02-.09-.25-7.09-1.35-7.04c-.26.07-.67.14-1.16.11-.59-.04-1.04-.24-1.31-.37Z"/>
        <path class="cls-12" d="m24.5,25.44s-4.5,7.1-4.69,8.75c-.2,1.66.49,2.06.78,2.37.29.31,5.05,6.36,5.05,6.36,0,0,.77.14,1.32,0,.56-.14.64-.42.64-.42,0,0-3.73-6.8-3.82-7.73-.1-1.01,2.32-4.59,2.32-4.59,0,0,1.44,7.33,1.54,7.78.1.46,6.83,4.89,6.83,4.89,0,0,.44-.27.87-1.03.42-.76.42-1.35.42-1.35l-5.38-3.92s.78-5.54.78-7.61c0,0-.03-.79-.08-1.08-.05-.29-2.67-2.08-4.48-2.5-1.81-.42-2.1.08-2.1.08Z"/>
        <path class="cls-13" d="m26.95,6.37c-.05-.07-1.47,1.09-1.94,2.39-.47,1.3-.17,2.3.52,2.59s1.5.09,1.76-.03c.26-.12.92-.45.95-.53.03-.09.29.1.68-.2.39-.29.38-.62.11-.97l-.15-.21s.4-.96.43-1.29c.02-.33-.2-.42-.43-.51-.23-.08-1.27-.2-1.92-1.25Z"/>
        <path class="cls-15" d="m26.78,6.3s-.06.16.1.43c.15.27.63.69,1.04.83.41.14,1.08.15,1.11.38.03.23-.08.73-.12.85-.04.12,0,.52,0,.52,0,0,.5-.88.5-.99s.11-.54-.25-.76c-.36-.21-1.02-.28-1.05-.3-.03-.01-1.32-.97-1.32-.97Z"/>
        <path class="cls-12" d="m27.24,4.34s-.65.51-.71,1.35c-.06.84.99,1.52,1.36,1.67.38.15,1.02.28,1.02.28,0,0,.34.18.28.59-.06.41-.38,1.17-.38,1.17,0,0,.48.41.29.89-.19.48-.76.5-.89.45,0,0-.35.26-.47.32,0,0,.23.37,1.43.01,1.2-.35,1.7-1.47,1.83-1.83.13-.35.23-1.42-.38-2.02-.61-.6-1.02-.49-.95-1.39.07-.9-.62-.89-.66-.89s-.91.17-.91.17c0,0-.32-.2-.42-.51-.1-.32-.29-.41-.29-.41l-.15.15Z"/>
        <path class="cls-11" d="m29.1,26.39s-.13,1.77.53,2.71c.66.94,1.42.9,1.42.9,0,0,.23-1.99-.09-2.53-.32-.54-1.92-1.12-1.92-1.12l.07.04Z"/>
        <path class="cls-18" d="m28.44,13.18s1.34-.41,2.45.73c1.11,1.14,2.36,2.89,2.89,5.64.54,2.75.04,5.09-.58,6.05-.62.97-1.35,1.73-1.92,2.12l-.56.39s-.89-.73-1.09-2.19.15-2.19.15-2.19l-1.4-10.46s-.01-.1.05-.1Z"/>
        <path class="cls-14" d="m28.69,22.68c.15-.05,1.49-.32,2.38-1.36.89-1.04,1.16-3.65.92-4.95-.24-1.31-.7-2.21-1.33-2.66-.63-.45-1.97,8.97-1.97,8.97Z"/>
        <path class="cls-13" d="m23.49,24.08s-.56.37-.8.34c-.24-.04-.98-.46-1.32-.31-.34.15-.39.54-.07.74.32.21.54.24.54.24,0,0-.79.43-.92.39-.13-.04-.3-.18-.45-.11-.14.07-.43,1.18.42,1.64.85.45,1.59.53,2.23.32.63-.21,1.26-.39,1.59-.66.33-.27.36-.42.36-.42l-.02-.15-1.56-2.02Z"/>
        <path class="cls-15" d="m24.29,24.79s.2,1.41-.48,1.85c-.67.44-1.46.65-1.77.66s-.93-.16-.93-.16c0,0,.95.5,2.03.18,0,0,.9-.22,1.44-.56.54-.34.54-.66.54-.66l-.84-1.31Z"/>
        <path class="cls-4" d="m28.99,13.14s-.99.42-1.12,2.24c-.13,1.82-.04,3.73-.29,4.4-.25.67-4.22,3.92-4.22,3.92,0,0,.01.97.88,1.8.86.83.83.69.83.69,0,0,4.5-2.43,4.86-2.76,1.02-.94,1.09-2.22,1.33-3.29.28-1.21.56-3.21.08-5.74-.25-.3-.48-.52-.66-.67-.3-.25-.56-.41-.82-.53-.36-.16-.57-.18-.76-.11-.04.02-.08.04-.1.06Z"/>
        <path class="cls-7" d="m26.49,7.13s.47.26.58.44c.11.18.2.31.18.44-.02.13-.22.63-.32.79-.1.15-.34.42-.4.47l-.06.05"/>
        <path class="cls-7" d="m27.9,8.38s.33-.04.5.11c.17.15.26.49.26.49"/>
        <path class="cls-12" d="m26.55,8.26c.1-.21.05-.45-.12-.54-.17-.08-.39.02-.5.23-.1.21-.05.45.12.54.17.08.39-.02.5-.23Z"/>
        <path class="cls-12" d="m28.31,9.37c.1-.21.05-.45-.12-.54-.17-.08-.39.02-.5.23-.1.21-.05.45.12.54.17.08.39-.02.5-.23Z"/>
        <path class="cls-15" d="m25.48,9.73c.26,0,.46-.21.46-.47s-.21-.47-.46-.47-.46.21-.46.47.21.47.46.47Z"/>
        <path class="cls-15" d="m27.49,10.76c.26,0,.46-.21.46-.47s-.21-.47-.46-.47-.46.21-.46.47.21.47.46.47Z"/>
        <path class="cls-7" d="m25.87,9.73s.15.38.32.51c.17.13.46.15.46.15"/>
        <path class="cls-4" d="m36.01,40.89c-.1,0-.03,1.32-.03,1.32l-.65.02s-.08.2-.01.44.54.93.54.93c0,0-.01,1.98.08,2.18.1.2.54-.31.8-.88.26-.58.76-2.58.86-3.02.1-.44.1-.59.1-.59,0,0,.05-.56-1.67-.4Z"/>
        <path class="cls-4" d="m25.91,43.51s.28.7.54.7.77-.55.77-.55c0,0,.23-.08.27.01.04.09.07,2.02.07,2.02,0,0-1.98-.1-2.89-.11-.91-.01-1.44-.21-1.52-.37-.07-.15.04-.33.16-.33s1.15-.16,1.36-.22c.21-.06,1.13-1.2,1.13-1.2l.1.05Z"/>
        <path class="cls-15" d="m25.88,11.47s.56-.03.84-.12c.28-.09.54-.23.54-.23,0,0-.06.39-.6.58-.55.19-.74.18-.74.18l-.04-.38v-.02Z"/>
        <path class="cls-8" d="m28.58,9.72s.27.18.24.39c-.03.21-.14.29-.25.23-.1-.06-.19-.22-.14-.28.05-.06.22-.14.24-.02.01.12-.09.1-.09.1"/>
        <path class="cls-1" d="m25.44,44.27c.08,0,.14-.05.14-.11s-.06-.11-.14-.11-.14.05-.14.11.06.11.14.11Z"/>
        <path class="cls-1" d="m25.22,44.52c.07,0,.12-.04.12-.1s-.05-.1-.12-.1-.12.04-.12.1.05.1.12.1Z"/>
        <path class="cls-1" d="m24.98,44.74c.06,0,.11-.04.11-.1s-.05-.1-.11-.1-.11.04-.11.1.05.1.11.1Z"/>
        <path class="cls-1" d="m35.7,42.59c.03-.07,0-.15-.06-.17-.06-.02-.12.02-.15.09-.03.07,0,.15.06.17.06.02.12-.02.15-.09Z"/>
        <path class="cls-1" d="m35.86,42.88c.02-.06,0-.13-.05-.14-.05-.02-.11.02-.13.08-.02.06,0,.13.05.14.05.02.11-.02.13-.08Z"/>
        <path class="cls-1" d="m35.98,43.19c.02-.06,0-.12-.05-.13s-.11.01-.13.07c-.02.06,0,.12.05.13.05.02.11-.01.13-.07Z"/>
        <path class="cls-13" d="m13.86,9.19H4.12c-.39,0-.71-.32-.71-.71v-1.62c0-.39.32-.71.71-.71h9.74c.39,0,.71.32.71.71v1.62c0,.39-.32.71-.71.71Z"/>
        <path class="cls-1" d="m13.51,7.45h-6.69s-.08-.04-.08-.08v-.35s.04-.08.08-.08h6.69s.08.04.08.08v.35s-.04.08-.08.08Z"/>
        <path class="cls-1" d="m13.56,8.49h-6.69s-.08-.04-.08-.08v-.35s.04-.08.08-.08h6.69s.08.04.08.08v.35s-.04.08-.09.08Z"/>
        <path class="cls-3" d="m5.28,8.76c.6,0,1.09-.46,1.09-1.02s-.49-1.02-1.09-1.02-1.09.46-1.09,1.02.49,1.02,1.09,1.02Z"/>
        <path class="cls-17" d="m5.28,6.72v1.09l-1.08-.15s.04-.89,1.08-.94Z"/>
        <path class="cls-6" d="m1.13,15.76s.8-.34,1.14-.31c.35.03.54.36.85.4.31.04.9-.43,1.4-.36.5.07.5.34.88.36.38.01.66-.47,1.28-.39.63.08.28.33.85.33s.66-.3,1.11-.26c.45.04.52.13.52.13"/>
        <path class="cls-6" d="m1.35,16.25c.5-.18.83-.13,1.13-.06.29.07.29.51.8.34.5-.17.88-.46,1.13-.41.24.04.64.36.97.37.33.01.83-.3,1.13-.3s.69.28,1.09.24c.4-.04.74-.33.99-.33s.54.14.54.14"/>
        <path class="cls-13" d="m37.69,33.9h-2.43c-.24,0-.44-.2-.44-.44v-2.99c0-.24.2-.44.44-.44h2.43c.24,0,.44.2.44.44v2.99c0,.24-.2.44-.44.44Z"/>
        <path class="cls-4" d="m36.5,32.95c-.75-.56-1.16-1.19-1-1.56.05-.11.19-.3.41-.34.29-.05.51.19.53.22.04-.05.21-.23.48-.25.05,0,.32-.03.49.16,0,0,.08.09.1.22.06.3-.35.9-1.02,1.55Z"/>
        <path class="cls-6" d="m40.83,24.02s.8-.34,1.15-.31c.35.03.54.36.85.4.31.04.9-.43,1.4-.36.5.07.5.34.88.36.38.01.66-.47,1.28-.39.62.08.28.33.85.33s.66-.3,1.11-.26c.45.04.52.13.52.13"/>
        <path class="cls-6" d="m41.06,24.51c.5-.18.83-.13,1.13-.06.29.07.29.51.8.34.5-.17.88-.46,1.13-.41.24.04.64.36.97.37.33.01.83-.3,1.13-.3s.69.28,1.09.24c.4-.04.74-.33.99-.33s.54.14.54.14"/>
        <path class="cls-17" d="m40.37,25.05l-.64-.32-.63.35.1-.71-.53-.49.71-.12.3-.66.33.64.71.09-.5.52.14.71Z"/>
        <path class="cls-13" d="m11.26,24.92c.82,0,1.49-.67,1.49-1.49s-.67-1.49-1.49-1.49-1.49.67-1.49,1.49.67,1.49,1.49,1.49Z"/>
        <path class="cls-4" d="m12.05,23.95l-.59-.08-.4.43-.1-.58-.54-.25.53-.28.07-.59.42.41.58-.11-.26.53.29.52Z"/>
        <path class="cls-13" d="m44.06,18.44h-6.8c-.43,0-.78-.35-.78-.79v-7.05c0-.44.35-.79.78-.79h6.8c.43,0,.78.35.78.79v7.05c0,.44-.35.79-.78.79Z"/>
        <path class="cls-5" d="m40.31,11.56s0-.87,0-.87h.84s0,.93,0,.93c0,0,.56.08.76.25.2.17.29.28.29.28l-.73.75s-.59-.52-1.19-.11c0,0-.29.62.25.79,0,0,.59-.01.96.12.37.13,1.16.7.9,1.75-.25,1.05-1.14,1.27-1.14,1.27l-.08.02.04.76s-.8.04-.83.03c-.04-.02-.01-.84-.01-.84,0,0-.61-.07-1.11-.49l-.17-.22.78-.76s.4.49,1.06.45c.67-.04.49-.89.16-.93-.33-.04-1.39.02-1.88-1.03-.5-1.04.47-2.17,1.1-2.13Z"/>
      </g>
    </g>
  </g>
</svg>