<?xml version="1.0" encoding="UTF-8"?>
<svg id="Layer_2" data-name="Layer 2" xmlns="http://www.w3.org/2000/svg" xmlns:xlink="http://www.w3.org/1999/xlink" viewBox="0 0 50 50">
  <defs>
    <style>
      .cls-1 {
        fill: #f9ecdc;
      }

      .cls-2 {
        fill: #fff;
      }

      .cls-3 {
        fill: #7b82c1;
      }

      .cls-4 {
        fill: #fcfaf7;
      }

      .cls-5 {
        opacity: .1;
      }

      .cls-5, .cls-6 {
        isolation: isolate;
      }

      .cls-5, .cls-6, .cls-7 {
        fill: #f4e6d5;
      }

      .cls-8 {
        fill: #f05840;
      }

      .cls-9 {
        fill: #ebdfca;
      }

      .cls-10 {
        fill: #e6b78b;
      }

      .cls-6 {
        opacity: .5;
      }

      .cls-11 {
        fill: #f1cfaa;
      }

      .cls-12, .cls-13 {
        fill: none;
      }

      .cls-13 {
        clip-path: url(#clippath);
      }

      .cls-14 {
        fill: #e2523b;
      }

      .cls-15 {
        fill: #5d65ac;
      }

      .cls-16 {
        fill: #3b439c;
      }
    </style>
    <clipPath id="clippath">
      <rect class="cls-12" width="50" height="50"/>
    </clipPath>
  </defs>
  <g id="Layer_1-2" data-name="Layer 1">
    <g class="cls-13">
      <g>
        <path class="cls-2" d="m44.89,33.88c-.01.06-.03.12-.04.18-4.06-1.35-11.08-2.17-22.67.34-7.24,1.56-12.74.62-16.33-2.8-.19-.18-.36-.36-.54-.55,0,0,0,0,0,0-.07-.16-.13-.33-.19-.49.27.32.55.62.86.91,3.54,3.38,8.98,4.3,16.16,2.75,11.6-2.5,18.66-1.69,22.75-.34Z"/>
        <path class="cls-2" d="m43.42,36.86s-.08.1-.12.15c-3.91-1.9-9.73-2.91-17.45.51-3.79,1.68-7.11,2.78-9.96,3.48-.09-.04-.19-.08-.28-.12,2.89-.69,6.28-1.8,10.16-3.52,7.81-3.46,13.69-2.42,17.64-.49Z"/>
        <path class="cls-2" d="m28.38,22.87c-1.59,1.56-3.82,2.85-6.96,3.34-.61.09-1.2.14-1.77.14-2.1,0-3.97-.63-5.58-1.88-2.75-2.14-4.23-5.73-5-8.49.05-.04.11-.07.16-.11.76,2.74,2.22,6.33,4.95,8.45,2.01,1.56,4.43,2.13,7.21,1.7,3.1-.48,5.3-1.75,6.87-3.29.04.05.08.09.12.14Z"/>
        <path class="cls-2" d="m25.53,19.69c-1.22,1.71-3,3.13-5.56,3.2h-.12c-1.15,0-2.17-.43-3.01-1.28-1.68-1.7-2.43-4.82-2.76-7.47.06,0,.12-.01.18-.02.32,2.62,1.06,5.7,2.7,7.36.83.84,1.84,1.25,2.99,1.23,2.51-.06,4.25-1.47,5.44-3.15.04.05.09.09.13.14Z"/>
        <path class="cls-15" d="m14.34,23.33l1.95-1.15h17.78l-1.19,1.15H14.34Z"/>
        <path class="cls-11" d="m20.17,15.07l-2.06,2.33,2.57,2.16,1.96-3.03-2.47-1.46Z"/>
        <path class="cls-11" d="m19.15,17.41l.29-4.83-1.19-.13s-1.91,5.74-1.22,7.62c.68,1.88,3.64-.49,3.64-.49l-1.52-2.16Z"/>
        <path class="cls-10" d="m19.25,15.07s.25,3.84-.04,3.84.04-3.84.04-3.84Z"/>
        <path class="cls-10" d="m19.39,13.29l-1.37-.19c.13-.4.23-.65.23-.65l1.19.13-.04.71Z"/>
        <path class="cls-8" d="m23.68,12.32l-.25-.93-.65.12s-2.73,2.96-3.18,3.3c-.45.34,2.1,1.97,2.35,1.97s1.73-4.47,1.73-4.47Z"/>
        <path class="cls-14" d="m23.13,13.14l-1.2,3.65c-.16-.02-.95-.48-1.58-.96l2.77-2.68Z"/>
        <path class="cls-8" d="m27.04,11.39l.92.12s2.34,1.96,2.66,2.09c0,0-1.01,2.22-1.37,2.39-.35.17-1.95-1.95-2.01-1.98-.06-.03-.2-2.62-.2-2.62Z"/>
        <path class="cls-8" d="m23.43,11.39s3.37-.09,3.61,0c.24.09,2.45,11.12,2.19,12.88-.26,1.75-9.91,1.21-9.83-.29.08-1.5,3.71-12.58,4.03-12.58Z"/>
        <path class="cls-14" d="m29.23,24.27c-.26,1.75-9.91,1.21-9.83-.3.03-.54.51-2.29,1.13-4.33.21.75.56,1.97.82,2.52.39.81,5.53.63,6.18.33.65-.3-1.23-4.38-1.4-4.81-.13-.32.97-2.61,1.54-3.74.72,3.39,1.73,9.11,1.55,10.34Z"/>
        <path class="cls-1" d="m25.38,13.73c.12,0,.22-.1.22-.22s-.1-.22-.22-.22-.22.1-.22.22.1.22.22.22Z"/>
        <path class="cls-1" d="m25.41,15.92c0,.12-.1.22-.22.22s-.22-.1-.22-.22.1-.22.22-.22.22.1.22.22Z"/>
        <path class="cls-1" d="m25.2,18.52c0,.12-.1.22-.22.22s-.22-.1-.22-.22.1-.22.22-.22.22.1.22.22Z"/>
        <path class="cls-1" d="m25.06,21.07c0,.12-.1.22-.22.22s-.22-.1-.22-.22.1-.22.22-.22.22.1.22.22Z"/>
        <path class="cls-1" d="m24.71,23.85c.12,0,.22-.1.22-.22s-.1-.22-.22-.22-.22.1-.22.22.1.22.22.22Z"/>
        <path class="cls-1" d="m25.04,11.87c.01-.11-1.61,9.66-1.67,13.39l.14-.07s1.19-10.48,1.53-13.32Z"/>
        <path class="cls-11" d="m24.35,9.31l.02,1.79s-.21.76.86.76c1.07,0,.9-.71.9-.71l-.23-1.85h-1.55Z"/>
        <path class="cls-10" d="m26.13,11.16l-.22-1.85h-1.55v.6s.49.43,1.33.26c.03,0,.06,0,.09,0,.02,0,.04,0,.05.02.03.03.02.08,0,.12-.02.04-.06.06-.1.08-.04.02-.09.04-.13.05-.28.09-.57.14-.86.16-.12.01-.25.02-.37.02v.48s-.2.76.86.76c1.07,0,.9-.71.9-.71Z"/>
        <path class="cls-1" d="m23.75,11.39c0-.24.14-.93.37-.71.23.22,1.76-.1,2.11-.04.35.06.43.67.45.84.02.17-1.13.91-1.74.93-.61.02-1.19-1.02-1.19-1.02Z"/>
        <path class="cls-11" d="m23.41,6.9s-.24-.21-.56-.07c-.36.16.1,1.07.33,1.07.22,0,.27-.12.26-.3,0-.3-.03-.7-.03-.7Z"/>
        <path class="cls-15" d="m23.04,7.01c.11.07.32.33.2.54,0,0,0-.14-.09-.22l-.19-.07.18-.02-.11-.23Z"/>
        <path class="cls-11" d="m26.75,6.9s.24-.21.56-.07c.36.16-.1,1.07-.33,1.07-.22,0-.27-.12-.26-.3,0-.3.03-.7.03-.7Z"/>
        <path class="cls-15" d="m27.13,7.01c-.11.07-.32.33-.2.54,0,0,0-.14.09-.22l.19-.07-.18-.02.11-.23Z"/>
        <path class="cls-11" d="m26.91,5.81h-3.51c-.14.61-.22,4.07,1.75,4.19,1.99.12,1.82-3.83,1.76-4.19Z"/>
        <path class="cls-15" d="m23.12,6.42s0,.75.23.68c.23-.08.15-.91.15-.91,0,0,1.05.59,1.53.2,0,0,1.07.52,1.69-.25,0,0-.04.89.13.94.17.05.63-1.05.35-1.49,0,0-.13-1.26-1.25-1,0,0-.13-.73-1.31-.63-1.3.11-1.12.82-1.12.82,0,0-.5.04-.68.73-.12.46.28.94.28.94Z"/>
        <path class="cls-15" d="m25.18,7.54s.25.64-.05.71c0,0,0,.02,0,.03.01.01.03.02.04.02.44-.02.02-.76,0-.76Z"/>
        <path class="cls-15" d="m24.04,6.9s-.04,0-.04-.02c0-.02,0-.04.02-.04.59-.28.86.09.86.09.01.01-.32-.05-.83-.03Z"/>
        <path class="cls-15" d="m26.34,6.86s.04,0,.04-.02c0-.02,0-.04-.02-.04-.59-.28-.86.09-.86.09-.01.01.32-.05.83-.03Z"/>
        <path class="cls-4" d="m25.84,8.72s-.53.32-1.19.11c-.11.28.72.87,1.19-.11Z"/>
        <path class="cls-15" d="m26.13,7.44c0,.13-.07.23-.16.24-.1.01-.2-.1-.22-.25-.02-.15.05-.29.16-.3.05,0,.11.02.15.07-.05.02-.08.08-.07.13,0,.07.07.12.13.11,0,0,.02,0,.02,0Z"/>
        <path class="cls-15" d="m24.43,7.72c-.11.01-.21-.1-.22-.25-.02-.15.05-.29.16-.3.04,0,.08.01.12.04-.03.03-.05.07-.05.12,0,.07.06.12.13.11.01,0,.02,0,.03,0,.01.15-.06.27-.16.28Z"/>
        <path class="cls-10" d="m25.2,9.51c.05,0,.08-.02.09-.02.01,0,.02-.02.01-.03,0-.01-.02-.02-.03-.01,0,0-.21.08-.43-.07-.01,0-.03,0-.03,0,0,.01,0,.03,0,.03.15.1.3.11.39.09Z"/>
        <path class="cls-10" d="m18.71,11.54s1.15-.35,1.23-.3c0,0,.12.16-.07.37-.1.11-.67.41-.67.41l-.49-.48Z"/>
        <path class="cls-16" d="m18.22,13.01l1.05.05c.26.01.48-.19.5-.44.04-.62.11-1.71.16-2.36.01-.18-.08-.35-.23-.44h-.19c-.18.02-.34.12-.41.28l-1.07,2.29c-.11.24,0,.5.2.62Z"/>
        <path class="cls-16" d="m21.06,9.2c.34.14.49.55.38.92-.11.37-.47.62-.83.55l-.76-.14.49-1.63.71.3Z"/>
        <path class="cls-8" d="m16.36,6.18l4.15,2.6.31.19c.1.06.15.18.13.3-.04.2-.09.42-.16.64-.07.23-.15.44-.23.63-.05.11-.15.18-.27.18h-.37s-4.93-.04-4.93-.04l1.36-4.51Z"/>
        <path class="cls-14" d="m14.42,8.06c-.38,1.25-.12,2.43.58,2.64.61.18,1.34-.43,1.77-1.41.06-.15.12-.3.17-.46.06-.21.11-.42.14-.63.14-.99-.14-1.83-.72-2.01-.7-.21-1.57.63-1.94,1.87Z"/>
        <path class="cls-16" d="m15.69,8.36c-.09.3.08.62.38.71l.71.21c.06-.15.12-.3.17-.46.06-.21.11-.42.14-.63l-.69-.21c-.15-.05-.3-.03-.43.04-.13.07-.23.19-.27.34Z"/>
        <path class="cls-11" d="m18.24,10.82c.32-.03,1.25.22,1.25.22,0,0,.03.17,0,.23-.06.09-.09.13-.3.11.14.04.33.11.33.11,0,0-.03.2-.08.25-.07.05-.2.08-.33.06.1.04.27.09.27.09,0,0,0,.19-.06.23-.11.06-.31.06-.49.03.13.04.29.1.29.1,0,0-.02.19-.07.22-.2.12-1.04.01-1.04.01-.18-.17-.39-.63-.28-.85.22-.43.4-.8.52-.81Z"/>
        <path class="cls-10" d="m18.4,11.27s.04-.01.12-.01c.07,0,.17,0,.28.02.22.03.39.09.38.1,0,.01-.18-.02-.39-.06-.11-.02-.2-.03-.27-.04-.07,0-.11,0-.11-.02Z"/>
        <path class="cls-10" d="m18.35,11.67s.04,0,.11,0c.07,0,.16.01.26.03.21.04.37.08.36.09,0,.01-.17-.02-.37-.05-.1-.02-.19-.03-.26-.04-.07-.01-.11-.02-.11-.02Z"/>
        <path class="cls-10" d="m18.35,12.07s.12,0,.25.02c.14.02.25.05.25.06,0,.01-.12,0-.25-.02-.14-.02-.25-.05-.25-.06Z"/>
        <path class="cls-1" d="m16.86,25.6l3.98-.45-.45-3.98-3.98.45.45,3.98Z"/>
        <path class="cls-6" d="m18.2,25.44l-.12-1.06.13.08.06-.1.11-.05.14.13.05-.2.21.31.08-.29.09.11.08-.18s.13.81.19,1.14c-.34.05-.68.06-1.01.12Z"/>
        <path class="cls-14" d="m20.38,21.17l-1-.05-3.55.41.58.1,3.98-.45Z"/>
        <path class="cls-9" d="m15.82,21.52l.44,3.87.12.04.22.08.26.09-.45-3.98-.58-.1Z"/>
        <path class="cls-6" d="m18.82,21.35l.14,1.19-.13-.08-.06.1-.11.05-.14-.13-.05.2-.28-.62-.02.6-.09-.11-.08.18s-.19-1.2-.22-1.27l-.29-.11h.28s0-.03,0-.03l.59-.07.44.1Z"/>
        <path class="cls-6" d="m16.49,21.56l-.28.03.05.59-.06-.07-.02.03-.05-.05-.04.03-.06-.05-.06-.53.28-.06-.02.02h.05s.04.04.04.04h.17Z"/>
        <path class="cls-6" d="m16.38,25.43l.22.08-.05-.37-.04.08-.04-.13-.04.04-.02-.1-.07-.11.04.5Z"/>
        <path class="cls-6" d="m19.57,21.13l-.32.04.08.02-.02.02s.09.02.09.02c0,0-.06.02-.05.02,0,0,.13-.01.13-.01v.02s.49-.1.49-.1l-.39-.02Z"/>
        <path class="cls-1" d="m22.97,25.25l5.45.43.43-5.45-5.45-.43-.43,5.45Z"/>
        <path class="cls-6" d="m24.8,25.38l.11-1.45.15.14.1-.12.16-.04.15.21.12-.26.2.48.19-.37.09.17.15-.23s-.04,1.12-.05,1.58c-.46-.01-.92-.1-1.39-.11Z"/>
        <path class="cls-14" d="m28.85,20.23l-1.33-.33-4.87-.38.75.29,5.45.43Z"/>
        <path class="cls-9" d="m22.65,19.51l-.42,5.29.14.09.28.17.32.19.43-5.45-.75-.29Z"/>
        <path class="cls-6" d="m26.71,20.06l-.13,1.63-.15-.14-.1.12-.16.04-.15-.21-.12.26-.21-.9-.18.79-.09-.17-.15.23s.06-1.66.04-1.76l-.35-.23.37.08v-.05s.82.06.82.06l.57.24Z"/>
        <path class="cls-6" d="m23.54,19.73l-.39-.04-.08.81-.06-.11-.03.03-.05-.07-.06.04-.07-.08.06-.72h.39s-.03.01-.03.01l.06.02.04.06.22.05Z"/>
        <path class="cls-6" d="m22.37,24.89l.28.17.03-.5-.07.1-.02-.19-.07.05v-.14s-.07-.16-.07-.16l-.07.68Z"/>
        <path class="cls-6" d="m27.77,19.96l-.44-.03.1.05-.04.02s.12.05.11.04c-.01,0-.09.02-.08.01.01,0,.17.02.17.02v.02s.68,0,.68,0l-.52-.13Z"/>
        <path class="cls-16" d="m32.88,23.33H14.34v22.73h18.54v-22.73Z"/>
        <path class="cls-3" d="m19.88,27.17c.02.51-.25.94-.62.96-.36.02-.68-.38-.7-.89-.02-.51.25-.94.62-.96.36-.02.68.38.7.89Z"/>
        <path class="cls-3" d="m28.18,27.17c.02.49-.24.91-.6.93-.35.02-.66-.37-.68-.86-.02-.49.24-.91.6-.93.35-.02.66.37.68.86Z"/>
        <path class="cls-7" d="m18.85,27.51c-.13,1.46-.27,2.91-.4,4.37-.11,1.25-.29,2.52-.24,3.78.09,2.26,1.33,4.08,3.49,4.85,1.1.39,2.28.46,3.43.36.86-.08,1.87-.23,2.36-1.04.55-.92-.13-1.74-.8-2.37-.77-.73-2.5-1.26-2.53-2.48-.02-.84.58-1.52,1.07-2.13.4-.5.78-1.02,1.13-1.57.62-.98,1.62-2.47,1.39-3.69-.06-.32-.56-.28-.5.04.2,1.04-.69,2.37-1.22,3.23-.55.91-1.29,1.67-1.86,2.56-.43.67-.69,1.52-.35,2.29.34.77,1.17,1.1,1.82,1.54.46.32.9.7,1.24,1.14.56.74.21,1.45-.6,1.75-1.01.39-2.38.32-3.42.14-2.38-.42-4.01-2.11-4.14-4.55-.07-1.29.12-2.6.24-3.89.13-1.41.26-2.82.39-4.24.03-.32-.47-.42-.5-.1Z"/>
        <path class="cls-3" d="m32.88,46.07l1.06-1.24,1.06-.34-.93-22.31-1.19,1.15v22.74Z"/>
        <path class="cls-5" d="m35,44.49l-1.06.34-.62-21.93.74-.72.93,22.31Z"/>
        <path class="cls-1" d="m36.65,16.93l-.47.32.43,4.18.36,3.4-8.07.74-.28-3.41-.34-4.19-.52-.22-2.21-.92s.46-2.61,1.99-4.16c.64-.67,1.48-1.08,2.23-1.34t.03,0s.1-.04.15-.06c.68-.21,1.29-.32,1.58-.36,0,0,.03,0,.1,0,.06,0,.11,0,.11,0,.29-.01.89-.02,1.6.07.06,0,.11.02.17.03.78.11,1.69.38,2.45.91,1.78,1.25,2.71,3.73,2.71,3.73l-2,1.31Z"/>
        <path class="cls-8" d="m34.43,14.73l-5.08,1.36c-.08.02-.12.1-.1.17l.35,1.33c.02.08.1.12.17.1l5.08-1.36c.08-.02.12-.1.1-.17l-.35-1.33c-.02-.08-.1-.12-.17-.1Z"/>
        <path class="cls-9" d="m28.61,22.16l-.34-4.19-.52-.22.92-1.88-.06,6.29Z"/>
        <path class="cls-9" d="m36.62,21.43l-.43-4.18.47-.32-1.25-1.68,1.21,6.18Z"/>
        <path class="cls-9" d="m31.49,25.33l-1.54.14.23-.83.04.39.3-1.89.25,1.4.11-.34.62,1.13Z"/>
        <path class="cls-14" d="m33.51,11.17c-.05.55-.8,1.05-1.76,1.14-.96.09-1.8-.26-1.94-.8.04-.02.1-.04.15-.06.68-.22,1.29-.32,1.58-.36,0,0,.03,0,.1,0,.06,0,.11,0,.11,0,.29-.01.89-.02,1.6.07.06,0,.11.02.17.03Z"/>
        <path class="cls-9" d="m33.34,11.14c-.01.52-.7.99-1.6,1.07-.9.08-1.68-.26-1.79-.76.68-.22,1.29-.32,1.58-.36,0,0,.03,0,.1,0,.06,0,.11,0,.11,0,.29-.01.89-.02,1.6.07Z"/>
        <path class="cls-16" d="m33.42,11.14c-.02.05-.09.16-.09.16l-.11.21-3.07.28c-.06-.06-.12-.18-.12-.18,0,0-.1-.16-.12-.17.42-.24.96-.42,1.57-.49l-.02-.19c-.2-.02-.38-.12-.49-.28-.07-.1-.11-.22-.13-.34,0-.05,0-.1,0-.15.03-.31.29-.57.61-.6.33-.03.63.18.72.48l-.34.03c-.07-.12-.2-.2-.35-.19-.15.01-.27.11-.31.25-.02.05-.03.1-.02.15.01.16.13.29.29.33.03.01.08.01.11,0,.02,0,.1.04.1.04l.03.02.04.43c.63-.04,1.21.04,1.69.21Z"/>
        <path class="cls-11" d="m32.21,10.6s-.15-.34-.51,0c-.36.35-.18.63-.02.6.16-.03.27-.03.37-.29,0,0,.02.24.2.24.18,0,.29-.15.29-.15,0,0-.03.22.06.26.08.04.32-.02.42-.24,0,0,.05.24.31.11.18-.08.21-.16.21-.16l.29.06s-.08-.5-.61-.39c0,0-.19-.29-.48,0,0,0-.23-.43-.53-.06Z"/>
        <path class="cls-10" d="m32.21,10.61s-.04.08-.09.16c-.05.09-.07.17-.08.17-.02,0-.02-.09.03-.19.05-.1.12-.15.13-.14Z"/>
        <path class="cls-10" d="m32.74,10.65s0,.03-.03.06c-.02.03-.04.07-.07.12-.05.1-.09.18-.11.17-.01,0,0-.1.06-.2.03-.05.06-.09.08-.12.03-.03.05-.04.05-.03Z"/>
        <path class="cls-10" d="m33.22,10.66s-.01.02-.03.06c-.02.03-.05.08-.07.13-.05.11-.08.2-.09.19-.01,0,0-.1.05-.22.03-.06.06-.1.09-.13.03-.03.06-.04.06-.03Z"/>
        <path class="cls-8" d="m31.9,6.2c.13.75-.37,1.46-1.12,1.59-.75.13-1.46-.37-1.59-1.12-.13-.75.37-1.46,1.12-1.59.75-.13,1.46.37,1.59,1.12Z"/>
        <path class="cls-14" d="m30.59,6.96c-.1,0-.21-.02-.3-.07l.06-.14c.09.05.17.07.25.06.1-.02.15-.08.13-.16-.04-.21-.46-.1-.52-.4-.03-.15.05-.27.19-.32l-.03-.16.13-.02.03.16c.1,0,.18.03.25.08l-.08.12c-.07-.04-.12-.07-.2-.05-.09.01-.13.07-.12.15.03.19.46.08.52.4.03.15-.04.28-.2.33l.03.16-.13.02-.03-.16Z"/>
        <path class="cls-8" d="m31.03,30.92l-2.06-1.02-.71.74-1.94,3.93.28.14,2.06,1.02.28.14,1.94-3.93.15-1.01Zm-1.35.14c-.12-.06-.17-.21-.11-.33.06-.12.21-.17.33-.11.12.06.17.21.11.33-.06.12-.21.17-.33.11Z"/>
        <path class="cls-14" d="m29,32.08l.08-.16.28.14-.08.16c.22.17.25.42.1.71l-.03.07-.33-.16.04-.09c.08-.16.04-.25-.06-.3-.11-.05-.2-.03-.28.13-.22.45.44.8.13,1.43-.15.29-.37.42-.64.35l-.08.16-.28-.14.08-.16c-.22-.17-.25-.42-.11-.72l.07-.15.32.16-.08.17c-.08.16-.04.25.07.3.11.05.21.03.28-.12.22-.45-.44-.8-.13-1.42.14-.29.36-.42.62-.35Z"/>
        <path class="cls-8" d="m9.24,12.48l1.3,3.14s2.34-.27,2.36-.38c.02-.11-.61-3.47-.61-3.47l-3.04.7Z"/>
        <path class="cls-14" d="m10.95,13.12c.16-.03.28.05.27.24,0,.19-.12.31-.27.33-.16.03-.28-.05-.28-.24,0-.19.12-.31.28-.33Zm.53-.08l.27-.05-.64,1.31-.27.05.64-1.31Zm-.61.38c0,.08.03.11.08.1.05,0,.08-.05.08-.13,0-.08-.03-.11-.08-.1-.05,0-.08.05-.08.13Zm.77.24c.16-.03.27.05.27.24,0,.19-.12.31-.27.33-.16.03-.28-.05-.27-.24,0-.19.12-.31.27-.33Zm-.08.3c0,.08.03.11.08.1.05,0,.08-.05.08-.13,0-.08-.03-.11-.08-.1-.05,0-.08.05-.08.13Z"/>
        <path class="cls-8" d="m36.76,19.12l-1.15,3.2s1.91,1.37,2,1.31c.09-.06,1.88-2.98,1.88-2.98l-2.73-1.53Z"/>
        <path class="cls-14" d="m37.59,20.74c.13.09.17.22.04.36-.13.14-.29.15-.43.06-.14-.09-.17-.22-.05-.36.13-.14.29-.15.43-.06Zm.44.3l.23.15-1.35.54-.23-.15,1.35-.54Zm-.7-.13c-.05.06-.05.1,0,.13.04.03.09.02.15-.04.05-.06.05-.1,0-.13-.04-.03-.09-.02-.15.04Zm.41.7c.13.09.17.22.04.36-.13.14-.29.15-.43.06-.13-.09-.17-.22-.04-.36.13-.14.29-.15.43-.06Zm-.26.17c-.05.06-.05.1,0,.13.04.03.09.02.14-.04.05-.06.05-.1,0-.13-.04-.03-.09-.02-.15.04Z"/>
      </g>
    </g>
  </g>
</svg>