<?xml version="1.0" encoding="UTF-8"?>
<svg id="Layer_2" data-name="Layer 2" xmlns="http://www.w3.org/2000/svg" xmlns:xlink="http://www.w3.org/1999/xlink" viewBox="0 0 50 50">
  <defs>
    <style>
      .cls-1 {
        opacity: .25;
      }

      .cls-1, .cls-2, .cls-3, .cls-4, .cls-5 {
        isolation: isolate;
      }

      .cls-1, .cls-2, .cls-6 {
        fill: #373e80;
      }

      .cls-7 {
        fill: #fff;
      }

      .cls-8, .cls-5 {
        fill: #a9aee0;
      }

      .cls-2 {
        opacity: .35;
      }

      .cls-3 {
        opacity: .18;
      }

      .cls-3, .cls-9 {
        fill: #f05840;
      }

      .cls-10 {
        fill: #009444;
      }

      .cls-4 {
        opacity: .2;
      }

      .cls-4, .cls-11 {
        fill: #3b439c;
      }

      .cls-12 {
        fill: #ebdfca;
      }

      .cls-13 {
        fill: #e35757;
      }

      .cls-5 {
        opacity: .5;
      }

      .cls-14 {
        fill: #29306f;
      }

      .cls-15, .cls-16 {
        fill: none;
      }

      .cls-17 {
        fill: #d5ad83;
      }

      .cls-16 {
        clip-path: url(#clippath);
      }
    </style>
    <clipPath id="clippath">
      <rect class="cls-15" width="50" height="50"/>
    </clipPath>
  </defs>
  <g id="Layer_1-2" data-name="Layer 1">
    <g class="cls-16">
      <g>
        <path class="cls-7" d="m16.05,33.51c.73-1.45,1.71-2.9,2.91-4.1,1.11-1.11,2.42-2.01,3.9-2.49,2.74-.89,5.73-.27,8.88,1.84,3.98,2.66,6.71,3.68,8.5,3.99-.04.05-.09.11-.13.16-1.82-.34-4.53-1.38-8.46-4.01-3.11-2.08-6.05-2.69-8.74-1.81-3.03.98-5.32,3.76-6.71,6.51-.05-.02-.1-.05-.15-.07Z"/>
        <path class="cls-7" d="m18.09,34.48c.62-1.06,1.27-1.92,1.93-2.58.89-.89,1.83-1.44,2.81-1.65,2.03-.44,4.3.53,6.94,2.94,1.54,1.4,2.89,2.48,4.04,3.31-.07.02-.14.04-.22.05-1.13-.82-2.45-1.88-3.94-3.24-2.6-2.38-4.82-3.33-6.79-2.9-1.66.36-3.19,1.72-4.62,4.13-.05-.02-.1-.04-.15-.07Z"/>
        <path class="cls-7" d="m20.65,35.47c.34-.55.68-1,1.03-1.35.67-.67,1.35-.97,2.05-.91,1.54.13,2.85,1.97,3.77,3.74-.07,0-.14-.01-.21-.02-.89-1.7-2.15-3.44-3.58-3.56-1-.08-1.97.64-2.91,2.15-.06-.02-.11-.04-.16-.06Z"/>
        <path class="cls-7" d="m9.91,27.82c-.02-.07-.04-.13-.06-.2.42-.54.91-1.11,1.49-1.69,2.48-2.48,6.53-5.15,13.12-6.71,8.51-2.02,12.46-6.24,14.27-9.41.07-.13.15-.26.21-.39.02.08.04.17.05.26-.04.07-.08.14-.12.21-1.83,3.21-5.81,7.45-14.38,9.49-8.17,1.94-12.42,5.59-14.59,8.44Z"/>
        <path class="cls-7" d="m17.23,17.57c.11-.05.22-.1.34-.15,3.21.1,7.11-.64,10.15-3.87,3.38-3.59,4.82-7.54,5.41-10.67.05,0,.11.02.16.04-.59,3.16-2.05,7.14-5.45,10.75-3.19,3.39-7.31,4.07-10.61,3.91Z"/>
        <path class="cls-7" d="m33.29,25.15c-1.12-1.35-1.33-2.75-.61-4.05.26-.47.61-.92,1.04-1.34,1.33-1.33,3.37-2.44,5.45-3.33,0,.07,0,.14,0,.21-2.7,1.15-5.31,2.69-6.33,4.55-.86,1.57-.15,2.97.59,3.86,1.73,2.07,5.47,3.67,8.44,3.86,0,.06-.01.12-.02.18-3.02-.18-6.76-1.79-8.55-3.93Z"/>
        <path class="cls-7" d="m35.48,22.58c.07-.21.2-.4.38-.59.73-.73,2.29-1.25,3.86-1.61l.05.17c-1.92.43-3.81,1.1-4.13,2.08-.51,1.57,4,3.64,6.19,4.54,0,.06.02.13.02.19-2.2-.89-6.94-3.04-6.38-4.78Z"/>
        <path class="cls-11" d="m17.32,44.99c-.96,0-1.75-.78-1.75-1.75V7.14c0-.96.78-1.75,1.75-1.75h18.16c.96,0,1.75.78,1.75,1.75v36.1c0,.96-.78,1.75-1.75,1.75h-18.16Z"/>
        <path class="cls-8" d="m17.32,43.71c-.26,0-.47-.21-.47-.47V7.14c0-.26.21-.47.47-.47h18.16c.26,0,.47.21.47.47v36.1c0,.26-.21.47-.47.47h-18.16Z"/>
        <path class="cls-12" d="m30.37,39.33l2.12,1.83.65-1.11-1.42-1.88-1.35,1.15Z"/>
        <path class="cls-9" d="m32.7,39.38c0-.22,1.67,1,1.64,1.15-.04.15-2.08,3.24-2.4,3.43-.32.19-.9-.19-.67-.72.23-.53.75-1.63.58-2.19,0,0-.35-.55-.35-.66,0-.11.4.13.4.13,0,0,.81-.61.79-1.13Z"/>
        <path class="cls-13" d="m31.41,42.9s.06,0,.14,0c.07,0,.18.02.29.07.23.1.4.22.43.18.03-.03-.11-.21-.37-.32-.13-.06-.27-.07-.37-.04-.1.03-.13.09-.12.11Z"/>
        <path class="cls-11" d="m34.12,40.24c.06.04.33.22.27.34-.05.12-2.43,3.57-2.49,3.56-.06-.01-.24-.13-.28-.14-.04-.01,2.5-3.76,2.5-3.76Z"/>
        <path class="cls-13" d="m32.19,41.64c-.04-.15-.38-.12-.4-.05-.02.06.44.2.4.05Z"/>
        <path class="cls-13" d="m32.08,42c-.04-.15-.38-.12-.4-.05-.02.06.43.2.4.05Z"/>
        <path class="cls-13" d="m31.94,42.37c-.04-.15-.38-.12-.4-.05-.02.06.43.2.4.05Z"/>
        <path class="cls-13" d="m32.77,41.04c.16.11.38.07.5-.09.11-.16.07-.39-.09-.5-.16-.11-.38-.07-.5.09-.11.16-.07.39.09.5Z"/>
        <path class="cls-14" d="m29.35,24.48l-1.79,7.08,4.63,6.99-1.19,1.49s-8.45-6.65-8.32-7.63c.13-.98,1.74-8.09,1.74-8.09l4.94.17Z"/>
        <path class="cls-11" d="m30.72,36.33l-1.02,2.66h0s-5.04-4.29-5.04-4.29c0,0,1.39-.48,1.36-1.08-.03-.6-.2-5.26-.2-5.26v-3.64l1.37,2.87.9,1.85-.53,2.11,3.16,4.77Z"/>
        <path class="cls-12" d="m27.99,43.97c-.01.08-.12,1.3-.18,1.63-.17.13-1.14-.03-1.19-.22-.05-.18.14-1.64.14-1.64l1.24.23Z"/>
        <path class="cls-9" d="m27.53,47.03c-.13.03-2.66-.44-2.91-.48-.25-.04,0-.93.77-.82l1.04-.59c.07-.17.16-.37.22-.44.11-.13.49-.09.71.12.1.09.12.26.11.42.25.05.43.11.42.24,0,.19-.23,1.51-.35,1.54Z"/>
        <path class="cls-13" d="m26.07,46.26c0-.09-.32-.54-.72-.53,0,0,.22-.23.56.04.25.2.16.49.16.49Z"/>
        <path class="cls-13" d="m27.25,46.04c-.02.14.04.27.15.29.11.02.21-.08.24-.23.02-.14-.04-.27-.15-.29-.11-.02-.21.08-.24.23Z"/>
        <path class="cls-13" d="m26.48,45.78c-.1-.08-.65-.21-.51-.26.14-.05.53.1.55.2.01.1-.04.06-.04.06Z"/>
        <path class="cls-13" d="m26.68,45.62c-.1-.08-.65-.21-.51-.26.14-.05.53.1.55.2.01.1-.04.06-.04.06Z"/>
        <path class="cls-13" d="m26.88,45.46c-.1-.08-.65-.21-.51-.26.14-.05.53.1.55.2.01.1-.04.06-.04.06Z"/>
        <path class="cls-11" d="m27.63,46.81s-1.13-.13-1.76-.24c-.07-.01-.1-.2-.72-.31-.43-.08-.6.03-.62.04-.03.02-.13.29-.01.33.12.04,2.94.54,3,.5.11-.08.12-.31.12-.31Z"/>
        <path class="cls-14" d="m32.08,24.3l-3.77,20.3-1.93-.43.14-16.83-.83-3.04h6.38Z"/>
        <path class="cls-9" d="m27.23,13.08l-.65.27s-1.83,2.37-1.74,2.56c.09.19,1.86,1.09,1.86,1.09l.8-1.7-.27-2.22Z"/>
        <path class="cls-9" d="m23.77,24.3s7.74,1.78,8.53.92c.79-.87-1.27-11.92-1.69-12.14-.42-.22-3.38,0-3.38,0,0,0-2.44,7.16-3.45,11.23Z"/>
        <path class="cls-12" d="m32.67,16.58s1.11,2.31,1.14,2.64c.02.33-1.54.39-1.8,0-.1-.15-1-1.69-1-1.69l1.66-.95Z"/>
        <path class="cls-9" d="m30.19,13l.7.08s2.05,3.45,2.46,4.22c-.74.49-1.48.62-2.12.77-.56-.84-.58-.95-.88-1.58-.56-1.53-.16-3.49-.16-3.49Z"/>
        <path class="cls-13" d="m30.04,14.94c.03.31.69,2.55,1.16,3.07,0,0-.58-.43-.8-1.25-.23-.83-.35-1.82-.35-1.82Z"/>
        <path class="cls-11" d="m27.38,8.73s2.2.51,2.29.94c.04.21.18.9-.21,1.17.19.64,0,.74-.33.74-.65,0-1.77-2.33-1.75-2.85Z"/>
        <path class="cls-13" d="m26.7,8.78s.44-1.68,2.16-1.12c1.25.41,1.25,1.52,1.08,1.93-.15.37-.22.4-.22.4,0,0-.35-.33-.95-.59-.74-.33-1.79-.61-2.06-.61Z"/>
        <path class="cls-10" d="m27.14,8.61c.16.03.32.07.48.11.15.03.3.06.44.1.3.08.59.21.86.36.28.15.54.34.81.51.04.03.08.06.12.09-.09.19-.14.21-.14.21,0,0-.35-.33-.95-.59-.74-.33-1.79-.61-2.06-.61,0,0,.02-.09.08-.21.12.03.24.03.36.05Z"/>
        <path class="cls-12" d="m26.6,8.95s-.17,2.58.43,3.05c.61.46,1.96-.44,1.96-.44,0,0,.39-1.77.15-2.02-.24-.25-2.26-.93-2.54-.59Z"/>
        <path class="cls-11" d="m26.58,8.98s-.33.22-.28.36c.05.14.37.03.51,0,.14-.03.5.09.61.1.12.01.17-.2.46-.21.29-.01.6.59.74.75.14.16.29-.59.31-.66.02-.07-1.84-.66-2.35-.33Z"/>
        <path class="cls-12" d="m27.73,11.96l-.07.9s.07.33.82.33c.75,0,.99-.41.99-.41l-.45-2.12-1.28,1.31Z"/>
        <path class="cls-17" d="m27.72,12.11l.77-.36s-.38.84-.53,1.1c-.15.26,0,.51,0,.51,0,0-.26-.02-.31-.29l.08-.95Z"/>
        <path class="cls-9" d="m28.71,9.32s-.66-.19-1.02-.23c-.37-.03-1.11-.09-1.11-.09,0,0-.93-.47-.72-.63.22-.17,1.21-.13,1.63.04.42.17,1.22.9,1.22.9Z"/>
        <path class="cls-13" d="m28.3,13.71s-.86-.3-.83-.49c.04-.19.17-.59.17-.59,0,0,.21.28.77.22.56-.05,1.04-.41,1.04-.41l.2.52s-.67.7-1.36.74Z"/>
        <path class="cls-11" d="m27.12,11.23s.3-.02.6-.01c0,0-.43.58-.6.01Z"/>
        <path class="cls-7" d="m27.12,11.23s.02.08.03.08c.01,0,.41,0,.53-.04l.04-.05s-.29-.04-.6.01Z"/>
        <path class="cls-11" d="m27.07,9.81s-.55.05-.62,0,.09-.18.35-.16c.25.03.33.15.27.16Z"/>
        <path class="cls-11" d="m26.6,10.11c0,.09.06.16.14.16s.14-.07.14-.16-.06-.16-.14-.16c-.02,0-.04,0-.06.02.03,0,.05.04.05.07,0,.04-.03.07-.06.07-.03,0-.05-.02-.06-.04,0,.01,0,.03,0,.04Z"/>
        <path class="cls-11" d="m27.73,9.77s.55.05.62,0c.06-.05-.09-.18-.35-.16-.25.03-.33.15-.27.16Z"/>
        <path class="cls-11" d="m27.88,10.07c0,.09.06.16.14.16s.14-.07.14-.16-.06-.16-.14-.16c-.02,0-.04,0-.06.02.03,0,.05.04.05.07,0,.04-.03.07-.06.07-.03,0-.05-.02-.06-.04,0,.01,0,.03,0,.04Z"/>
        <path class="cls-11" d="m27.27,10.84s.02,0,.03-.02c0-.01,0-.03-.01-.04-.07-.04-.08-.06-.08-.07,0-.02.04-.05.08-.09.02-.02.05-.04.08-.07.12-.13.07-.51.06-.5-.02,0-.01.37-.1.46-.02.02-.05.05-.07.07-.06.05-.1.09-.1.14,0,.04.04.08.11.12,0,0,.01,0,.02,0Z"/>
        <path class="cls-9" d="m18.17,15.91l4.47-.95,4.47.66-4.39,1.51-4.55-1.22Z"/>
        <path class="cls-13" d="m22.83,21.68l4.35-1.06-.08-5-4.4.94.14,5.13Z"/>
        <path class="cls-5" d="m20.17,15.49l1.4-.29,3.96.73.05,1-.55.17-.1-.16-.05.23-.42.15v-1.08s-4.28-.75-4.28-.75Z"/>
        <path class="cls-5" d="m24.92,21.17v-.78s.27-.05.27-.05l.06.1.03-.13.71-.2.08.79-1.15.28Z"/>
        <path class="cls-9" d="m18.17,15.91l.14,5.14,4.52.63-.14-5.13-4.53-.64Z"/>
        <path class="cls-13" d="m18.17,15.91l4.53.64s-1.41.17-2.35,0c-.94-.17-2.18-.64-2.18-.64Z"/>
        <path class="cls-12" d="m27.77,18.22s5.18.03,5.6.39c.42.35.6.8.39,1.31-.21.51-.9.54-1.34.58-.44.03-4.8-.75-4.8-.75l.15-1.52Z"/>
        <path class="cls-17" d="m30.16,18.27c.07,0,2.31-.07,2.27.18-.04.25-2.27-.18-2.27-.18Z"/>
        <path class="cls-12" d="m26.95,17.69c-.43-.17-.88-.14-1.07-.12-.32.04-1.37.53-1.37.53,0,0,.04.15.09.2.08.07.27.08.48.01-.13.07-.36.22-.36.22,0,0,.09.16.15.19.08.04.25.03.38-.02-.09.06-.25.15-.25.15,0,0,.13.17.19.19.12.04.32-.02.5-.09-.12.06-.3.22-.3.22,0,0,.14.13.2.15.22.08.88-.18.88-.18.43.51.85.57,1.15.59.07,0,.15-1.52.15-1.52,0,0-.5-.4-.82-.53Z"/>
        <path class="cls-17" d="m25.82,18.05s-.04.02-.11.04c-.07.02-.16.05-.26.09-.2.08-.37.15-.37.14,0-.01.15-.1.36-.18.1-.04.2-.07.27-.08.07-.01.12-.02.12-.01Z"/>
        <path class="cls-17" d="m25.95,18.44s-.04.02-.1.05c-.07.03-.15.06-.25.1-.19.08-.35.14-.35.13,0-.01.15-.09.34-.17.1-.04.19-.07.25-.09.07-.02.11-.02.11-.02Z"/>
        <path class="cls-17" d="m26.03,18.83s-.08.06-.2.11c-.11.05-.21.08-.21.07,0-.01.08-.06.2-.11.11-.05.21-.08.21-.07Z"/>
        <path class="cls-11" d="m32.66,33.53l-8.24-1.47,1.57-11.88,7.2.63-.54,12.72Z"/>
        <path class="cls-1" d="m33.14,22.12l-.48,11.41-8.24-1.47.42-3.14c.93,2.05,2.17,2.15,3.89,1.69,3.27-.88,4.2-6.65,4.41-8.48Z"/>
        <path class="cls-6" d="m33.19,20.81l.33.28.24-.23.65,11.9-.64.15-1.11.62.54-12.72Z"/>
        <path class="cls-6" d="m27.61,22.38c.12,0,.22-.14.22-.31s-.1-.31-.22-.31-.22.14-.22.31.1.31.22.31Z"/>
        <path class="cls-6" d="m30.62,22.2c0,.17-.1.3-.22.3s-.22-.14-.22-.3.1-.3.22-.3.22.14.22.3Z"/>
        <path class="cls-8" d="m30.47,22.44c.11-.48.21-.96.32-1.44.09-.41.21-.83.24-1.25.07-.76-.27-1.42-.96-1.77-.35-.18-.74-.25-1.13-.27-.29-.01-.63,0-.83.25-.22.28-.03.59.16.82.23.28.78.53.74.94-.03.28-.26.48-.45.66-.16.15-.31.31-.44.48-.25.3-.65.76-.62,1.17,0,.11.18.12.17,0-.02-.36.33-.76.54-1.03.22-.28.5-.5.73-.77.17-.2.3-.48.22-.75-.08-.27-.34-.42-.54-.59-.14-.12-.27-.27-.36-.43-.16-.27,0-.49.28-.56.35-.09.81,0,1.15.1.78.24,1.25.88,1.19,1.7-.03.44-.15.86-.25,1.29l-.31,1.4c-.02.11.14.16.16.05Z"/>
        <path class="cls-12" d="m20.2,21.42s-.27.28-.5-.19c-.23-.47.04-.69.19-.6.15.08.25.13.26.42,0,0,.1-.23.28-.16.18.07.24.25.24.25,0,0,.05-.22.15-.23.1-.01.3.13.33.38,0,0,.13-.22.34,0,.14.15.15.23.15.23l.31.04s-.26.46-.74.16c0,0-.29.22-.47-.17,0,0-.37.34-.54-.13Z"/>
        <path class="cls-17" d="m20.2,21.42s-.01-.09-.03-.19c-.01-.1,0-.19-.02-.19-.02,0-.05.09-.03.2.01.11.07.19.08.18Z"/>
        <path class="cls-17" d="m20.73,21.56s0-.03,0-.06c0-.04-.01-.09-.02-.14-.02-.11-.03-.21-.04-.21-.02,0-.03.1-.01.22,0,.06.02.11.04.15.02.04.04.06.04.05Z"/>
        <path class="cls-17" d="m21.21,21.72s0-.03-.01-.07c0-.04-.02-.09-.02-.15,0-.12,0-.22-.02-.22-.01,0-.04.1-.03.23,0,.06.02.12.04.16.02.04.04.06.05.05Z"/>
        <path class="cls-12" d="m28.89,9.42s.18-.17.44-.05c.28.13-.08.83-.26.83-.17,0-.21-.1-.2-.23,0-.23.02-.55.02-.55Z"/>
        <path class="cls-11" d="m29.18,9.5c-.08.06-.25.26-.16.42,0,0,0-.11.07-.17l.15-.06-.14-.02.09-.18Z"/>
        <path class="cls-12" d="m27.77,18.22l1.8.04.11,1.84-1.68-.29-.23-1.59Z"/>
        <path class="cls-2" d="m23.47,9.66v3.88c0,.31-.29.57-.66.57h-7.26v-5.01h7.26c.36,0,.66.25.66.57Z"/>
        <path class="cls-6" d="m23.69,7.93h-14.95c-.33,0-.61.27-.61.61v4.1c0,.33.27.61.61.61h14.95c.33,0,.61-.27.61-.61v-4.1c0-.33-.27-.61-.61-.61Z"/>
        <path class="cls-11" d="m13.05,11.64c0,.35.29.62.63.62.35,0,.62-.29.62-.63,0-.35-.29-.62-.63-.62-.35,0-.62.29-.62.63Z"/>
        <path class="cls-9" d="m13.36,11.63c0,.17.14.31.31.31.17,0,.31-.14.31-.31,0-.17-.14-.31-.31-.31-.17,0-.31.14-.31.31Z"/>
        <path class="cls-11" d="m13.53,11.63c0,.08.07.14.15.14.08,0,.14-.07.14-.15,0-.08-.07-.14-.15-.14-.08,0-.14.07-.14.15Z"/>
        <path class="cls-11" d="m9.54,11.69c0,.35.29.62.63.62.35,0,.62-.29.62-.63,0-.35-.29-.62-.63-.62-.35,0-.62.29-.62.63Z"/>
        <path class="cls-9" d="m9.86,11.68c0,.17.14.31.31.31.17,0,.31-.14.31-.31,0-.17-.14-.31-.31-.31-.17,0-.31.14-.31.31Z"/>
        <path class="cls-11" d="m10.02,11.68c0,.08.07.14.15.14.08,0,.14-.07.14-.15,0-.08-.07-.14-.15-.14-.08,0-.14.07-.14.15Z"/>
        <path class="cls-8" d="m9.52,11.54h1.01c.16.04.24.14.27.25.04.11.03.22.03.22,0,0,1.77-.02,2.02-.03.25-.01.3-.26.44-.5.02-.03.05-.06.08-.08h0c.27-.18.97-.24.97-.24,0-.21-.14-.34-.29-.42-.2-.1-.44-.12-.44-.12l.03-.17c.02-.12,0-.25-.07-.35l-.41-.6h-.33s-.13,0-.13,0l.27.8-.3,1.36h-.7c-.37-.06-.48-.61-.48-.61v-.04s.06-.34.06-.34l-1.89.03-.12.34-.12.35c-.03.08.03.16.11.16Z"/>
        <path class="cls-8" d="m12.6,9.29c0,.17.11.25.11.25h.4s.09-.02.12-.04c.07-.04.11-.12.11-.2,0-.12-.09-.22-.21-.23,0,0-.01,0-.02,0-.1,0-.21,0-.27,0-.14,0-.25.06-.24.22Z"/>
        <path class="cls-11" d="m11.54,10.67l-2.01.03s-.11-.21,0-.45h1.86s0,0,0,0h0s.23.07.15.43Z"/>
        <path class="cls-8" d="m9.53,10.85h.07s-.13.37-.13.37c-.05-.03-.09-.08-.09-.14v-.07c0-.09.07-.16.15-.16Z"/>
        <path class="cls-14" d="m12.91,9.27l-.35-.28v.07s.33.26.33.26c0,0,.04,0,.02-.04Z"/>
        <path class="cls-11" d="m12.57,8.98v.09c0,.07-.03.12-.07.12v-.33s.07.05.07.12Z"/>
        <path class="cls-11" d="m9.52,11.54h1.01c.16.04.24.14.27.25l2.05-.03.45-1.48-.45-.79h-.13s.27.8.27.8l-.3,1.36h-.7c-.12-.01-.21-.08-.28-.17-.15-.18-.21-.44-.21-.44v-.02s0-.01,0-.01c0,0,0,0,0,0l-1.95.03h0s-.12.35-.12.35c-.03.08.03.16.11.16Z"/>
        <path class="cls-11" d="m12.76,9.57s.04.08.08.08c.04,0,.08-.04.08-.08,0-.04-.04-.08-.08-.08-.04,0-.08.04-.08.08Z"/>
        <path class="cls-13" d="m13.1,9.22c0,.11.05.21.13.28.03-.02.05-.04.06-.06.03-.04.04-.09.04-.14,0-.12-.09-.22-.21-.23-.02.05-.03.1-.03.15Z"/>
        <path class="cls-11" d="m13.29,11.48l.08-.08h0s.68-.66.68-.66c-.2-.1-.44-.12-.44-.12l-.33.87Z"/>
        <path class="cls-6" d="m11.49,11.02s0,0,0,0c0,0,0,0,0,0,0,0,0,0,0,0,0,0,0,0,0,.01Z"/>
        <path class="cls-11" d="m11.54,10.67l-.03.21-1.86-.18,1.89-.03Z"/>
        <path class="cls-4" d="m13.19,9.52s-.23,0-.23,0l.34.18-.11-.18Z"/>
        <path class="cls-3" d="m13.29,9.44s.04-.09.04-.14c0-.12-.09-.22-.21-.23,0,0,0,.23.16.37Z"/>
        <path class="cls-11" d="m16.63,9.55c-.06.33-.33.56-.68.56h-.42l.2-1.12h.42c.36,0,.55.23.49.56Zm-.66.33c.21,0,.35-.12.38-.33.04-.21-.06-.33-.27-.33h-.13l-.11.65h.13Z"/>
        <path class="cls-11" d="m17.52,9.21h-.41l-.04.23h.36l-.04.21h-.36l-.04.25h.41l-.04.21h-.68l.2-1.12h.68l-.04.21Z"/>
        <path class="cls-11" d="m18.01,9l-.16.91h.36l-.04.21h-.63l.2-1.12h.27Z"/>
        <path class="cls-11" d="m18.5,9h.27l-.2,1.12h-.27l.2-1.12Z"/>
        <path class="cls-11" d="m18.89,9h.29l.13.84.43-.84h.29l-.59,1.12h-.34l-.2-1.12Z"/>
        <path class="cls-11" d="m20.78,9.21h-.41l-.04.23h.36l-.04.21h-.36l-.04.25h.41l-.04.21h-.68l.2-1.12h.68l-.04.21Z"/>
        <path class="cls-11" d="m21.45,9c.27,0,.38.16.35.35-.02.14-.12.27-.31.32l.18.44h-.31l-.16-.42h-.07l-.07.42h-.27l.2-1.12h.46Zm-.06.22h-.17l-.05.28h.17c.1,0,.16-.05.18-.14.02-.08-.02-.14-.13-.14Z"/>
        <path class="cls-11" d="m21.94,9h.31l.13.47.3-.47h.31l-.52.75-.07.37h-.27l.07-.37-.26-.75Z"/>
        <path class="cls-11" d="m15.97,12.04c-.25,0-.43-.12-.41-.35h.28c0,.08.04.13.13.13.08,0,.13-.03.13-.1,0-.18-.48-.14-.48-.47,0-.23.18-.36.43-.36s.41.13.39.33h-.29c0-.07-.03-.12-.11-.12-.08,0-.13.04-.13.1,0,.17.48.15.48.48,0,.2-.17.34-.43.34Z"/>
        <path class="cls-11" d="m17.36,11.12h-.41l-.04.23h.36l-.04.21h-.36l-.04.25h.41l-.04.21h-.68l.2-1.12h.68l-.04.21Z"/>
        <path class="cls-11" d="m18.03,10.91c.27,0,.38.16.35.35-.02.14-.12.27-.31.32l.18.44h-.31l-.16-.42h-.07l-.07.42h-.27l.2-1.12h.46Zm-.06.22h-.17l-.05.28h.17c.1,0,.16-.05.18-.14.02-.08-.02-.14-.13-.14Z"/>
        <path class="cls-11" d="m18.53,10.91h.29l.13.84.42-.84h.29l-.59,1.12h-.34l-.2-1.12Z"/>
        <path class="cls-11" d="m19.77,10.91h.27l-.2,1.12h-.27l.2-1.12Z"/>
        <path class="cls-11" d="m20.76,10.89c.27,0,.44.15.46.39h-.3c-.03-.09-.11-.14-.21-.14-.17,0-.3.12-.34.32-.03.19.06.32.22.32.1,0,.2-.05.26-.14h.3c-.11.24-.33.39-.6.39-.33,0-.52-.23-.46-.57.06-.33.33-.57.66-.57Z"/>
        <path class="cls-11" d="m22.1,11.12h-.41l-.04.23h.36l-.04.21h-.36l-.04.25h.41l-.04.21h-.68l.2-1.12h.68l-.04.21Z"/>
      </g>
    </g>
  </g>
</svg>