<?xml version="1.0" encoding="UTF-8"?>
<svg id="Layer_2" data-name="Layer 2" xmlns="http://www.w3.org/2000/svg" viewBox="0 0 21.1 12">
  <defs>
    <style>
      .cls-1 {
        fill: #5d64ab;
      }

      .cls-2 {
        fill: #e2523b;
      }

      .cls-3 {
        fill: #5d65ac;
      }

      .cls-4 {
        fill: #3b439c;
      }
    </style>
  </defs>
  <g id="Layer_1-2" data-name="Layer 1">
    <g>
      <path class="cls-2" d="m12.89,5.93c-.64.22-1.2.3-1.58.32-.86.06-1.45-.08-1.89-.19-.41-.1-.68-.21-.86-.32-.28.3-.62.4-.83.44-.06.23-.09.47-.09.71,0,.86.4,1.63,1.02,2.13h0s-.02.02-.03.02c.47.39,1.07.62,1.72.62.73,0,1.38-.29,1.87-.76,0,0-.02-.01-.03-.02h0c.54-.5.87-1.21.87-2,0-.33-.06-.65-.17-.95Zm-3.61,1.38c-.08,0-.15-.15-.15-.33s.07-.33.15-.33.15.15.15.33-.07.33-.15.33h0Zm2.13.02c-.08,0-.15-.15-.15-.33s.07-.33.15-.33.15.15.15.33-.07.33-.15.33h0Z"/>
      <path class="cls-3" d="m8.94,8.38c0,.13-.03.25-.08.36-.05.11-.13.21-.23.29-.44-.36-.75-.86-.89-1.43.11-.05.23-.07.35-.07.47,0,.85.38.85.85Z"/>
      <path class="cls-3" d="m13,7.41c-.1.58-.38,1.1-.78,1.49-.21-.16-.35-.4-.35-.69,0-.47.38-.85.85-.85.09,0,.19.02.28.05Z"/>
      <path class="cls-4" d="m9.72,8.69c.07.04.15.08.23.1.14.05.29.07.43.06.15-.01.3-.06.44-.13.1-.06.19-.13.27-.21.05-.05.09-.11.13-.17,0,0,0,0,0-.01,0-.02,0-.04-.01-.05,0,0-.02,0-.03,0,0,0-.02,0-.02.02-.01.02-.03.04-.04.06,0,.01-.02.03-.03.04,0,0,0,0,0,0h0s0,.01,0,.02c0,0-.01.02-.02.02-.03.04-.07.07-.1.1,0,0-.02.02-.03.03,0,0-.01,0-.02.01,0,0,0,0,0,0,0,0,0,0,0,0-.02.02-.05.03-.07.05-.03.02-.06.03-.08.05-.01,0-.03.01-.04.02h-.01s0,0,0,0c0,0,0,0,0,0,0,0-.02,0-.03.01-.04.01-.07.03-.11.03-.02,0-.04,0-.06.01,0,0-.02,0-.03,0h-.01s0,0,0,0c0,0,0,0,0,0-.07,0-.15.01-.22,0,0,0-.02,0-.03,0,0,0-.01,0-.02,0,0,0,0,0,0,0h0s-.04,0-.05-.01c-.03,0-.07-.01-.1-.02-.03,0-.06-.02-.09-.03,0,0-.01,0-.02,0h0s-.02-.01,0,0c-.01,0-.02,0-.03-.01-.03-.01-.06-.03-.09-.05h-.01s-.04-.01-.05,0c0,0,0,.02,0,.03,0,0,0,.02.02.02h0Z"/>
      <path class="cls-3" d="m13.34,5.76c-.15.07-.3.12-.45.17-.64.22-1.2.3-1.58.32-.86.06-1.45-.08-1.89-.19-.41-.1-.68-.21-.86-.32-.28.3-.62.4-.83.44.02-.09.05-.18.08-.26.09-.24.21-.46.36-.66,0-.02,0-.05,0-.07.02-.55,1.54-1.28,2.81-.99.55.12.74.37,1.56.49.3.05.6.06.91.05-.16.2-.34.37-.55.52-.1.07-.2.13-.3.19.09.1.21.19.33.24.13.05.27.07.41.06h0Z"/>
      <path class="cls-1" d="m21.1,6.07c-.33.52-3.75,5.61-10.24,5.92C4.26,12.3.36,7.39,0,6.92l1.24-.95c.31.41,3.77,4.73,9.54,4.46,5.69-.27,8.72-4.76,9.02-5.21l1.3.85Z"/>
      <path class="cls-1" d="m4.92,3.46c.01.27-.07.51-.25.72-.1.12-.21.2-.33.25-.12.05-.23.08-.35.08-.12,0-.23-.02-.35-.07-.11-.05-.22-.11-.31-.19-.1-.09-.18-.18-.23-.29s-.09-.21-.1-.32c-.01-.11,0-.22.04-.33.03-.11.09-.21.17-.3.06-.06.11-.12.17-.15s.12-.07.18-.09c.06-.02.11-.03.17-.03.05,0,.1,0,.14.03l.14-.16c-.07-.02-.14-.03-.21-.04-.07,0-.15,0-.22.03-.08.02-.15.06-.23.12-.08.05-.16.13-.23.21-.11.13-.2.26-.25.4-.06.14-.08.27-.08.41,0,.14.04.27.1.39.06.13.15.24.27.34.1.09.22.16.35.21.13.05.26.08.4.07.14,0,.28-.04.42-.11.14-.07.28-.18.41-.32.08-.09.15-.19.19-.28s.08-.17.1-.25c.02-.08.03-.15.04-.21,0-.06,0-.11,0-.15,0,0-.12.01-.12.01Zm1.36-1.39c.06.08.1.17.13.27.02.1.03.19.02.29-.01.1-.05.19-.1.27-.05.09-.13.16-.22.23-.1.07-.2.11-.3.13-.1.02-.2.02-.29,0-.09-.02-.18-.06-.27-.11s-.15-.12-.21-.2c-.06-.08-.1-.17-.12-.27-.02-.1-.03-.19-.02-.29.01-.1.05-.19.1-.28s.13-.17.22-.24c.09-.07.19-.11.29-.13s.2-.02.29,0c.09.02.18.06.27.11.08.06.15.13.21.21Zm-.23.16c-.08-.11-.16-.19-.23-.25-.07-.05-.14-.08-.21-.1-.07-.01-.13,0-.18.01s-.11.04-.15.07c-.04.03-.08.07-.12.12-.04.05-.06.1-.07.17-.01.07,0,.14.02.23.02.09.08.19.16.3.08.11.15.19.23.24.07.05.14.08.21.09.07.01.13,0,.18-.01s.11-.04.15-.07c.04-.03.08-.07.12-.12.04-.05.06-.1.07-.17s0-.14-.02-.23c-.03-.09-.08-.19-.16-.3Zm2.16-.16l-.35-.89s-.03-.08-.06-.13c-.03-.06-.07-.1-.12-.15-.05-.04-.12-.07-.2-.09-.08-.02-.18,0-.3.05-.05.02-.11.05-.17.1-.06.05-.1.12-.14.21l-.03.06h-.01s-.07-.17-.07-.17l-.23.09.54,1.37.23-.09-.33-.85c-.03-.07-.04-.14-.04-.2s.01-.11.03-.16c.02-.05.05-.09.09-.12s.08-.06.13-.08c.08-.03.14-.04.2-.02s.1.04.13.07c.03.03.06.07.08.11.02.04.03.07.04.09l.35.9s.23-.09.23-.09Zm.08-1.42l-.02-.12.25-.05-.08-.45.25-.04.08.45.35-.06.02.12-.35.06.17.96s0,.05.02.08c0,.03.02.06.03.08.01.02.03.04.06.06.02.01.05.02.09.01.05,0,.08-.03.11-.07.02-.04.04-.08.05-.13l.16.11c-.08.11-.18.18-.3.2-.05,0-.1,0-.15,0-.05,0-.1-.03-.14-.06-.04-.03-.08-.07-.12-.12-.03-.05-.06-.12-.07-.19l-.16-.89s-.25.05-.25.05Zm1.97-.4c.14,0,.25.01.33.05.08.04.14.09.18.15.04.06.06.14.07.22,0,.08.01.17.02.26l.02.8h-.24s0-.14,0-.14c-.06.06-.13.1-.21.14-.09.03-.18.05-.26.06-.08,0-.16-.01-.22-.04-.07-.03-.12-.06-.16-.11-.04-.05-.08-.1-.1-.16-.02-.06-.04-.12-.04-.18,0-.06,0-.13.03-.19.02-.06.06-.12.1-.17.05-.05.1-.09.17-.13s.15-.05.23-.05.17.01.25.04c.08.03.15.08.2.14v-.13c0-.16-.04-.28-.09-.36-.05-.08-.14-.11-.27-.11-.05,0-.1,0-.14.02-.04.01-.08.03-.11.06-.03.03-.06.06-.09.09-.03.04-.05.08-.08.12l-.16-.15s.05-.06.08-.09c.03-.03.07-.06.11-.08.04-.02.1-.05.16-.06.06-.02.13-.03.22-.03Zm.36.91s-.03-.05-.04-.08c-.02-.03-.04-.06-.07-.09-.03-.03-.07-.05-.11-.07-.04-.02-.09-.03-.15-.03-.06,0-.11.01-.16.04-.05.02-.09.05-.12.09-.03.04-.06.08-.07.13-.02.05-.02.1-.02.15,0,.06.01.12.04.16.02.05.05.08.09.12.04.03.08.05.12.07.04.01.09.02.12.02.04,0,.08,0,.11-.02.04-.01.07-.03.11-.06.03-.03.06-.06.09-.09.03-.03.05-.07.07-.11,0,0,0-.23,0-.23Zm1.47.62c-.07-.01-.13-.03-.2-.07-.06-.03-.11-.08-.15-.13-.04-.06-.07-.13-.09-.21-.02-.08-.01-.18,0-.3.02-.12.06-.21.1-.29.05-.08.1-.13.16-.18.06-.04.12-.07.18-.08.06-.01.12-.01.18,0,.09.02.16.05.22.11.06.06.09.12.1.19l.2.04c0-.07-.03-.14-.06-.19-.03-.05-.08-.1-.13-.14-.05-.04-.11-.07-.17-.09-.06-.02-.12-.04-.18-.05-.12-.02-.23-.02-.33,0-.1.02-.19.06-.26.12-.08.06-.14.13-.19.21-.05.09-.08.18-.1.28-.02.11-.02.21,0,.31.02.1.05.19.11.27.05.08.12.15.2.2.08.06.18.09.3.11.13.02.24.02.35,0s.19-.06.27-.1l-.06-.12c-.08.04-.15.07-.22.09-.07.01-.15.01-.23,0Zm1.11-1l.04-.11.24.08.15-.43.24.08-.15.43.34.11-.04.11-.34-.11-.31.92s-.02.05-.02.08-.01.06-.01.09c0,.03,0,.05.02.08.01.02.04.04.07.05.04.02.09.01.13-.01.04-.02.08-.05.11-.08l.09.18c-.12.06-.24.07-.36.03-.05-.02-.09-.04-.13-.07-.04-.03-.07-.07-.1-.12-.02-.05-.04-.1-.04-.16,0-.06,0-.13.03-.2l.29-.86s-.24-.08-.24-.08Zm2.92.58l-.78.99c-.05.06-.1.14-.15.22s-.07.18-.08.28c0,.1.02.21.08.33.06.12.16.23.32.36.1.08.2.13.3.16.1.03.2.04.29.02.09-.01.18-.05.26-.1.08-.05.16-.12.22-.2l.83-1.05-.1-.08-.77.98s-.05.07-.08.1c-.03.03-.06.06-.1.09-.03.03-.07.05-.12.07s-.09.04-.15.05c-.1.02-.2,0-.28-.02-.09-.03-.17-.08-.24-.14-.06-.05-.11-.11-.15-.17-.03-.06-.06-.13-.07-.2-.01-.06-.01-.11,0-.16,0-.05.02-.09.03-.12.01-.04.03-.07.06-.1.02-.03.05-.06.07-.09l.83-1.06s-.21-.17-.21-.17Zm1.8,3.03s.07-.07.09-.12c.02-.05.03-.1.02-.16,0-.06-.02-.12-.04-.18-.02-.06-.06-.12-.1-.18-.04-.05-.09-.1-.14-.13-.05-.04-.1-.06-.16-.07-.05-.01-.11-.01-.17,0-.06.01-.11.04-.17.08-.07.06-.12.12-.14.19s-.02.14,0,.21c.01.07.04.14.07.21.03.07.06.14.08.21.02.07.03.13.03.18,0,.06-.03.11-.08.15-.02.02-.05.03-.08.04-.03.01-.06.02-.09.01-.03,0-.07-.02-.11-.04-.04-.02-.08-.06-.12-.11-.05-.06-.08-.12-.09-.18-.01-.06-.02-.11-.01-.16,0-.05.02-.09.04-.12.02-.03.04-.06.06-.07l-.12-.15s-.08.08-.1.13c-.02.05-.04.11-.04.18,0,.07.01.14.04.21.03.07.07.15.13.23.11.14.23.22.35.25.12.02.23,0,.33-.09.07-.06.12-.12.14-.19.02-.07.02-.14,0-.21-.01-.07-.04-.15-.07-.22-.03-.07-.06-.14-.08-.21-.02-.07-.03-.13-.04-.18,0-.06.02-.1.07-.14.02-.02.04-.03.07-.04.03,0,.06-.01.09,0,.03,0,.07.01.11.04s.07.05.11.1.06.09.07.14c.01.04.02.09.02.12,0,.04,0,.07-.02.1-.01.03-.03.05-.05.07,0,0,.1.13.1.13Z"/>
      <path class="cls-4" d="m9.46,6.98c0,.2-.08.36-.18.36s-.18-.16-.18-.36.08-.36.18-.36.18.16.18.36Z"/>
      <path class="cls-4" d="m11.6,6.98c0,.2-.08.36-.18.36s-.18-.16-.18-.36.08-.36.18-.36.18.16.18.36Z"/>
    </g>
  </g>
</svg>