<?xml version="1.0" encoding="UTF-8"?>
<svg id="Layer_2" data-name="Layer 2" xmlns="http://www.w3.org/2000/svg" viewBox="0 0 100 17.72">
  <defs>
    <style>
      .cls-1 {
        fill: #fff;
      }
    </style>
  </defs>
  <g id="Layer_1-2" data-name="Layer 1">
    <g>
      <path class="cls-1" d="m0,.15h9.19v2.47c-.62-1.14-1.97-2.06-3.8-2.19v15.45c0,1.07.17,1.59.49,1.84h-2.57c.34-.25.49-.76.49-1.84V.43C1.97.56.73,1.38,0,2.62V.15Z"/>
      <path class="cls-1" d="m20.19,15.73c0,1.07.2,1.78.48,1.99h-2.57c.29-.22.48-.91.48-1.99v-5.56c-.25.07-.53.1-.83.1-.37,0-.84-.19-1.42-.58-.58-.39-1.15-.77-1.72-1.16-.57-.39-1.02-.58-1.33-.58-.44,0-.73.16-.89.49-.16.33-.25.78-.26,1.37v5.92c0,1.07.18,1.78.48,1.99h-2.57c.29-.21.48-.91.48-1.99V2.14c0-1.06-.18-1.74-.48-1.99h2.57c-.3.24-.48.93-.48,1.99v5.56c.25-.07.54-.1.86-.1s.7.12,1.16.36c.45.24.86.51,1.22.79.36.29.74.55,1.15.79.4.24.72.36.96.36.4,0,.68-.15.84-.44.16-.29.26-.71.29-1.25V2.14c0-1.06-.19-1.75-.48-1.99h2.57c-.29.23-.48.93-.48,1.99v13.59Z"/>
      <path class="cls-1" d="m31.26,15.73c0,1.06.22,1.81.48,1.99-.8,0-1.27-.12-1.6-.36-.33-.24-.49-.66-.49-1.25v-3.6c0-.37,0-.67-.03-.91-.02-.23-.06-.47-.14-.72-.08-.24-.19-.42-.35-.53-.16-.11-.36-.16-.62-.16-.57,0-1.46.34-2.67,1.01-.39.24-.66.25-.82.05-.16-.2-.04-.48.36-.83.55-.49,1.01-.9,1.37-1.25.36-.34.75-.76,1.16-1.23.41-.48.73-.93.96-1.36.23-.43.42-.91.57-1.46.15-.55.23-1.11.23-1.7,0-1.02-.25-1.78-.76-2.27-.5-.49-1.18-.74-2.04-.76h-2.37v15.33c0,1.07.24,1.81.48,1.99h-2.57c.25-.15.48-.91.48-1.99V2.14c0-1.06-.47-1.98-.48-1.99h4.46c1.36,0,2.48.29,3.37.86.89.57,1.34,1.38,1.36,2.42,0,.65-.25,1.36-.76,2.13-.5.76-1.04,1.4-1.61,1.91-.57.51-1.23,1.07-1.98,1.66-.75.6-1.2.97-1.37,1.12-.1.12-.15.23-.15.34s.04.18.11.23c.08.04.17.04.29-.01,1.19-.64,2.07-.96,2.64-.96,1.64,0,2.47.89,2.47,2.67v3.22Z"/>
      <path class="cls-1" d="m35.41,15.73c0,1.07.19,1.77.48,1.99h-2.57c.29-.23.48-.91.48-1.99V2.14c0-1.06-.18-1.75-.48-1.99h2.57c-.31.24-.48.93-.48,1.99v13.59Z"/>
      <path class="cls-1" d="m45.33.15h-7.83c.23.14.48.93.48,1.99v2.42c0,.99.21,1.8.62,2.44.41.64,1,1.02,1.77,1.15.77.13,1.7-.08,2.79-.62.13-.05.24-.05.31-.01.08.04.11.12.1.23,0,.11-.07.21-.19.29-.18.12-.62.34-1.3.67-.68.33-1.3.64-1.85.94-.55.3-1.07.72-1.55,1.25-.48.53-.72,1.08-.72,1.65v3.2c0,1.07-.35,1.93-.48,1.99h2.57c-.18-.1-.48-.91-.48-1.99v-3.42c0-.47.08-.88.23-1.25.15-.36.39-.68.73-.96.34-.28.66-.51.98-.7.32-.19.74-.44,1.26-.73.52-.29.95-.56,1.28-.79.18-.12.28-.26.29-.44,0-.18-.06-.3-.21-.36-.15-.07-.36-.06-.63.03-.92.45-1.68.61-2.27.47-.59-.14-1.01-.49-1.27-1.04-.26-.55-.39-1.3-.39-2.24V.43c1.61,0,2.89.24,3.85.72.96.48,1.64,1.01,1.89,1.47.68-1.26,2.02-2.06,3.85-2.19v15.45c0,1.07-.22,1.64-.49,1.84h2.57c-.29-.22-.49-.76-.49-1.84V.43c1.83.13,3.15.93,3.8,2.19V.15h-9.23Z"/>
      <path class="cls-1" d="m65.24,17.72c.12-.08.24-.32.31-.65.08-.34.12-.64.14-.91l.03-.43V3.52c0-.96-.22-1.7-.67-2.23-.44-.53-.99-.79-1.62-.79-.39,0-.73.1-1.04.3-.31.2-.56.48-.74.84-.18.36-.28.78-.28,1.27,0,.65.27,1.71.81,3.17.54,1.46,1.07,2.9,1.61,4.33.54,1.43.81,2.45.81,3.07,0,.59-.16.99-.47,1.22-.31.23-.63.34-.97.34-.54,0-1.04-.34-1.51-1.02-.47-.68-.86-1.54-1.17-2.57-.31-1.03-.63-2.15-.94-3.35-.32-1.2-.6-2.31-.86-3.34-.25-1.02-.54-1.88-.86-2.57-.32-.69-.65-1.03-.98-1.03-.45,0-.68.55-.68,1.64,0,0,0,12.91,0,12.91,0,.33,0,.65.06.97.08.37.25.68.42,1.02h-1.28c.1-.1.48-.91.48-1.99,0-.12,0-1.03.01-2.74,0-1.71.02-3.6.03-5.66,0-2.06.01-3.59.01-4.58,0-.81.15-1.46.47-1.98.31-.51.73-.77,1.27-.77.44,0,.86.47,1.28,1.4.42.93.81,2.06,1.16,3.4.35,1.33.7,2.67,1.04,4,.34,1.33.73,2.47,1.15,3.4.42.93.84,1.4,1.26,1.4s.63-.28.63-.83c0-.52-.25-1.43-.74-2.73-.5-1.3-.99-2.63-1.5-4-.5-1.37-.76-2.41-.76-3.13,0-.6.14-1.13.43-1.57.29-.44.64-.77,1.07-.97.43-.2.9-.3,1.42-.3.32,0,.66.06,1.02.19.36.13.71.31,1.06.57.34.25.63.61.86,1.07.23.46.34.99.34,1.57v12.28c0,1.07.28,1.77.48,1.99h-2.57Z"/>
      <path class="cls-1" d="m78.03,15.86c.22.97.52,1.64.81,1.86h-2.54c.23-.14.31-.9.13-1.99-.89-5.17-1.71-9.46-2.47-12.89-.24-1.11-.51-1.66-.83-1.66-.15,0-.28.07-.39.2-.11.13-.2.31-.26.53-.07.22-.13.52-.2.91-.18.97-.5,2.58-.93,4.83-.25,1.26-.13,1.89.38,1.89.25,0,.5-.15.74-.44.24-.29.49-.59.73-.88.24-.29.49-.44.74-.44.29,0,.51.1.68.3.17.2.23.44.18.73-.05.29-.23.53-.53.73-.6.4-1.04.7-1.32.88-.28.18-.62.44-1.02.78-.4.34-.7.64-.89.91-.19.27-.38.6-.57.99-.18.39-.33.83-.43,1.32-.1.54-.18.97-.23,1.31,0,.02,0,.05-.03.1-.15,1.04-.05,1.68.2,1.89h-1.28c.35-.28.65-.96.83-1.99.02-.1.1-.54.25-1.31.08-.47.23-.91.43-1.33.2-.42.4-.76.59-1.03.19-.27.46-.55.79-.86.34-.3.6-.52.78-.65.18-.13.46-.32.83-.57.37-.24.59-.39.65-.44.18-.12.28-.24.29-.38,0-.13-.09-.2-.29-.2s-.53.18-.98.53-.78.53-.98.53c-.84,0-1.11-.79-.81-2.37.39-2.03.69-3.67.91-4.91.34-1.83.99-2.74,1.96-2.74.35,0,.65.21.89.62.24.41.47,1.11.67,2.1.77,3.74,1.61,8.12,2.52,13.14Z"/>
      <path class="cls-1" d="m88.67,15.73c0,1.06.17,1.75.48,1.99-.74,0-1.27-.12-1.6-.36-.33-.24-.49-.66-.49-1.25v-3.6c0-.37,0-.67-.03-.91-.02-.23-.06-.47-.14-.72-.08-.24-.19-.42-.35-.53-.16-.11-.36-.16-.62-.16-.57,0-1.46.34-2.67,1.01-.39.24-.66.25-.82.05-.16-.2-.04-.48.36-.83.55-.49,1.01-.9,1.37-1.25.36-.34.75-.76,1.16-1.23.41-.48.73-.93.96-1.36.23-.43.42-.91.57-1.46.15-.55.23-1.11.23-1.7,0-1.02-.25-1.78-.76-2.27-.5-.49-1.18-.74-2.04-.76h-2.37v15.33c0,1.07.18,1.76.48,1.99h-2.57c.28-.23.48-.91.48-1.99V2.14c0-1.06-.19-1.74-.48-1.99h4.46c1.36,0,2.48.29,3.37.86.89.57,1.34,1.38,1.36,2.42,0,.65-.25,1.36-.76,2.13-.5.76-1.04,1.4-1.61,1.91-.57.51-1.23,1.07-1.98,1.66-.75.6-1.2.97-1.37,1.12-.1.12-.15.23-.15.34s.04.18.11.23c.08.04.17.04.29-.01,1.19-.64,2.07-.96,2.64-.96,1.64,0,2.47.89,2.47,2.67v3.22Z"/>
      <path class="cls-1" d="m92.83,15.73c0,1.07.18,1.77.48,1.99h-2.57c.28-.22.48-.91.48-1.99V2.14c0-1.06-.18-1.75-.48-1.99h2.57c-.3.23-.48.93-.48,1.99v13.59Zm6.7,0c0,1.06.24,1.78.48,1.99-.76,0-1.29-.12-1.61-.36-.32-.24-.48-.66-.48-1.25v-3.6c0-.37-.01-.67-.04-.91-.03-.23-.08-.47-.15-.72-.08-.24-.19-.42-.35-.53-.16-.11-.36-.16-.62-.16-.57,0-1.45.34-2.64,1.01-.4.24-.68.25-.84.05-.16-.2-.04-.48.36-.83.7-.62,1.28-1.15,1.71-1.59.44-.44.87-.94,1.31-1.52.44-.58.76-1.19.96-1.82.2-.64.3-1.33.3-2.06v-1.66c0-.54.19-.94.57-1.21.38-.27.88-.4,1.52-.4-.14.15-.31.42-.38.86-.07.44-.1.81-.1,1.13v1.28c0,.54-.14,1.1-.43,1.69-.29.59-.67,1.14-1.16,1.66-.49.52-.95.99-1.38,1.4-.44.41-.91.83-1.42,1.25-.51.42-.84.7-.99.86-.12.1-.18.21-.18.33s.05.19.14.23c.09.03.2.03.31-.03.05-.03.15-.09.3-.18.15-.08.27-.15.35-.19.08-.04.2-.1.35-.18.15-.08.28-.13.39-.18.11-.04.23-.08.38-.13.14-.04.29-.07.43-.09.14-.02.29-.03.44-.03,1.64,0,2.47.89,2.47,2.67v3.22Z"/>
    </g>
  </g>
</svg>