<?xml version="1.0" encoding="UTF-8"?>
<svg id="Layer_2" data-name="Layer 2" xmlns="http://www.w3.org/2000/svg" viewBox="0 0 50 50">
  <defs>
    <style>
      .cls-1 {
        stroke: #3b439c;
        stroke-linecap: round;
        stroke-linejoin: round;
        stroke-width: 2.37px;
      }

      .cls-1, .cls-2 {
        fill: none;
      }

      .cls-3 {
        fill: #ffae01;
      }
    </style>
  </defs>
  <g id="Layer_1-2" data-name="Layer 1">
    <g>
      <rect class="cls-2" width="50" height="50"/>
      <g>
        <path class="cls-3" d="m39.9,29.3c1.2-8.2-4.4-15.8-12.5-17s-15.7,4.4-16.9,12.6c-1.2,8.2,4.4,15.8,12.5,17,8.1,1.2,15.7-4.4,16.9-12.6Z"/>
        <path class="cls-1" d="m23.4,17.9L3.4,30.3c-.3.2-.6.5-.7.9-.1.4-.2.8-.1,1.2.1.4.3.7.7,1,.3.2.7.4,1.1.4h41.3c.4,0,.8-.1,1.1-.4.3-.2.6-.6.7-1,.1-.4.1-.8-.1-1.2-.1-.4-.4-.7-.8-.9l-20-12.4c-.5-.3-1-.5-1.6-.5-.5.1-1.1.2-1.6.5Z"/>
        <path class="cls-1" d="m29.1,8.3c0-.8-.2-1.6-.7-2.3-.4-.7-1.1-1.2-1.8-1.5s-1.6-.4-2.4-.2c-.8.2-1.5.5-2.1,1.1s-1,1.3-1.1,2.1c-.2.8-.1,1.6.2,2.4.3.7.8,1.4,1.5,1.8.7.5,1.5.7,2.3.7v5"/>
        <path class="cls-1" d="m40.8,37.1c-1.7,2.6-4,4.8-6.7,6.3s-5.8,2.3-8.9,2.4c-3.1,0-6.2-.7-8.9-2.2-2.7-1.4-5.1-3.6-6.8-6.1"/>
        <path class="cls-1" d="m32.3,9.5c2.9,1.2,5.4,3.1,7.3,5.6s3.3,5.3,3.8,8.4"/>
        <path class="cls-1" d="m46,18.7l-2.5,4.8-4.7-2.5"/>
        <path class="cls-1" d="m16.8,9.7c-2.9,1.2-5.4,3.1-7.3,5.6-1.9,2.4-3.3,5.3-3.8,8.4"/>
        <path class="cls-1" d="m16.1,15l.8-5.3-5.3-.8"/>
        <path class="cls-1" d="m8.7,42.8l.8-5.3,5.3.8"/>
      </g>
    </g>
  </g>
</svg>