<?xml version="1.0" encoding="UTF-8"?>
<svg id="Layer_2" data-name="Layer 2" xmlns="http://www.w3.org/2000/svg" viewBox="0 0 50 50">
  <defs>
    <style>
      .cls-1 {
        fill: #b6cc71;
      }

      .cls-2, .cls-3 {
        fill: none;
      }

      .cls-3 {
        stroke: #3b439c;
        stroke-linecap: round;
        stroke-linejoin: round;
        stroke-width: 2.29px;
      }
    </style>
  </defs>
  <g id="Layer_1-2" data-name="Layer 1">
    <g>
      <rect class="cls-2" width="50" height="50"/>
      <g>
        <path class="cls-1" d="m43.8,6.3s-20-3.2-16.9,16.9c20.1,3.2,16.9-16.9,16.9-16.9Z"/>
        <path class="cls-1" d="m8.9,3.3S29,.1,25.8,20.2C5.7,23.3,8.9,3.3,8.9,3.3Z"/>
        <path class="cls-3" d="m42.9,4.3S22.1.9,25.4,22c20.9,3.4,17.5-17.7,17.5-17.7Z"/>
        <path class="cls-3" d="m37.5,9.8l-12.1,12.2"/>
        <path class="cls-3" d="m7.1,4.3S27.9.9,24.6,22C3.8,25.4,7.1,4.3,7.1,4.3Z"/>
        <path class="cls-3" d="m13.3,10.5l11.4,11.5"/>
        <path class="cls-3" d="m26.3,31c-.5-3.1-.8-6.2-.8-9.3h-1c-.2,5.3-.6,8.6-1,10.4,1-.3,1.9-.7,2.8-1.1Z"/>
        <path class="cls-3" d="m15.6,35.1l-6.6-4c-1-.6-2.2-.8-3.3-.5s-2.1,1-2.7,2c-.3.6-.5,1.3-.3,1.9.2.7.6,1.2,1.1,1.6l5.6,3.5,7.4,4.6c5.7,3.5,13.5,3.6,19,.8,3.7-1.8,7.8-2.6,11.8-2v-13.3l-5-2.8c-5.6-3.2-12.7,2.2-12.7,2.2-2.7,1.8-5,3-8.2,3.6-1.2.2-2.6.2-3.7.7-1.3.6-2.4,1.6-2.8,3.1-.1.5-.1,1.1.1,1.6s.5,1,1,1.3c1.2.8,3,.5,4.4.4,3.3-.4,6.6-1.3,9.6-2.6h.1"/>
        <path class="cls-3" d="m18.2,33.1l-7.2-4.3c-.4-.3-.9-.5-1.4-.5s-1-.1-1.5.1c-.5.1-1,.3-1.4.6s-.8.7-1,1.1l-.2.4"/>
        <path class="cls-3" d="m22.3,32.4l-8.2-4.9c-.8-.5-1.7-.7-2.6-.5-.9.1-1.7.6-2.4,1.3"/>
      </g>
    </g>
  </g>
</svg>