<?xml version="1.0" encoding="UTF-8"?>
<svg id="Layer_2" data-name="Layer 2" xmlns="http://www.w3.org/2000/svg" viewBox="0 0 50 50">
  <defs>
    <style>
      .cls-1 {
        fill: #b6cc71;
      }

      .cls-2, .cls-3 {
        fill: none;
      }

      .cls-3 {
        stroke: #3b439c;
        stroke-linecap: round;
        stroke-linejoin: round;
        stroke-width: 2.41px;
      }
    </style>
  </defs>
  <g id="Layer_1-2" data-name="Layer 1">
    <g>
      <rect class="cls-2" width="50" height="50"/>
      <g>
        <path class="cls-1" d="m17.9,6c.7-.5,1.5-.9,2.4-1.2,2-.8,7.4-2.7,12.6,1.3l4.6,6.7,3.1-1.8-3.4,10.6-10.9-2.4,3.3-1.9-2.9-5c.1,0-2.7-5.8-8.8-6.3Z"/>
        <path class="cls-1" d="m11.7,43c-.8-.4-1.6-.9-2.3-1.4-1.6-1.3-6-5-5.2-11.6l3.5-7.3-3.1-1.8,10.9-2.4,3.4,10.6-3.3-1.9-2.9,5c-.1-.1-3.7,5.3-1,10.8Z"/>
        <path class="cls-1" d="m47.5,30.3c.1.9,0,1.8-.1,2.7-.3,2.1-1.3,7.8-7.4,10.3l-8.1.6v3.6l-7.5-8.2,7.5-8.3v3.8h5.7c0,.1,6.4.5,9.9-4.5"/>
        <path class="cls-3" d="m16.5,5c.7-.5,1.5-.9,2.4-1.3,2-.8,7.4-2.8,12.7,1.3l4.6,6.8,3.2-1.8-3.4,10.7-11-2.4,3.3-1.9-2.9-5c0-.1-2.8-5.9-8.9-6.4Z"/>
        <path class="cls-3" d="m16.5,5c-.8.8-4.7,7-4.7,7l7.8,4.5,4.4-7.3c-.9-1.2-2.1-2.1-3.4-2.9-1.2-.7-2.7-1.2-4.1-1.3Z"/>
        <path class="cls-3" d="m10.1,42.4c-.8-.4-1.6-.9-2.3-1.5-1.7-1.3-6.1-5.1-5.3-11.8l3.5-7.4-3.2-1.8,11-2.4,3.4,10.8-3.3-1.9-2.9,5c.1,0-3.5,5.4-.9,11Z"/>
        <path class="cls-3" d="m10.1,42.4c1.1.3,8.4.5,8.4.5v-9l-8.5-.2c-.6,1.4-.8,2.9-.8,4.4,0,1.4.3,2.9.9,4.3Z"/>
        <path class="cls-3" d="m45.7,29.2c.1.9,0,1.8-.1,2.7-.3,2.1-1.3,7.8-7.5,10.4l-8.1.6v3.7l-7.6-8.3,7.6-8.3v3.9h5.8c-.1-.1,6.4.4,9.9-4.7Z"/>
        <path class="cls-3" d="m45.7,29.2c-.3-1.1-3.7-7.5-3.7-7.5l-7.8,4.5,4.1,7.5c1.5-.2,2.9-.7,4.2-1.5,1.2-.8,2.3-1.8,3.2-3Z"/>
      </g>
    </g>
  </g>
</svg>